<?xml version="1.0" encoding="UTF-8" standalone="no"?>
<svg
   xmlns:dc="http://purl.org/dc/elements/1.1/"
   xmlns:cc="http://creativecommons.org/ns#"
   xmlns:rdf="http://www.w3.org/1999/02/22-rdf-syntax-ns#"
   xmlns:svg="http://www.w3.org/2000/svg"
   xmlns="http://www.w3.org/2000/svg"
   viewBox="0 0 58 30.4"
   height="30.4"
   width="58"
   xml:space="preserve"
   id="svg2"
   version="1.1"><metadata
     id="metadata8"><rdf:RDF><cc:Work
         rdf:about=""><dc:format>image/svg+xml</dc:format><dc:type
           rdf:resource="http://purl.org/dc/dcmitype/StillImage" /></cc:Work></rdf:RDF></metadata><defs
     id="defs6" /><g
     transform="matrix(1.3333333,0,0,-1.3333333,0,30.4)"
     id="g10"><g
       transform="scale(0.1)"
       id="g12"><path
         id="path14"
         style="fill:none;stroke:#000000;stroke-width:6;stroke-linecap:butt;stroke-linejoin:miter;stroke-miterlimit:4;stroke-dasharray:none;stroke-opacity:1"
         d="M 92.2266,206.621 14.9805,206.609" /><path
         id="path16"
         style="fill:none;stroke:#000000;stroke-width:6;stroke-linecap:butt;stroke-linejoin:miter;stroke-miterlimit:4;stroke-dasharray:none;stroke-opacity:1"
         d="m 53.8086,206.621 0.0117,-27.09" /><path
         id="path18"
         style="fill:none;stroke:#000000;stroke-width:6;stroke-linecap:butt;stroke-linejoin:miter;stroke-miterlimit:4;stroke-dasharray:none;stroke-opacity:1"
         d="M 310.027,93.0859 H 232.781" /><path
         id="path20"
         style="fill:none;stroke:#000000;stroke-width:6;stroke-linecap:butt;stroke-linejoin:miter;stroke-miterlimit:4;stroke-dasharray:none;stroke-opacity:1"
         d="M 271.621,93.0859 V 66.0078" /><path
         id="path22"
         style="fill:#000000;fill-opacity:1;fill-rule:nonzero;stroke:none"
         d="m 180.93,194.336 c 2.832,0 5.125,2.305 5.125,5.137 0,2.832 -2.293,5.136 -5.125,5.136 -2.844,0 -5.141,-2.304 -5.141,-5.136 0,-2.852 2.297,-5.137 5.141,-5.137" /><path
         id="path24"
         style="fill:#000000;fill-opacity:1;fill-rule:nonzero;stroke:none"
         d="m 144.082,194.336 c 2.832,0 5.129,2.305 5.129,5.137 0,2.832 -2.297,5.136 -5.129,5.136 -2.844,0 -5.137,-2.304 -5.137,-5.136 0,-2.852 2.293,-5.137 5.137,-5.137" /><path
         id="path26"
         style="fill:#000000;fill-opacity:1;fill-rule:nonzero;stroke:none"
         d="m 289.68,194.336 c 2.832,0 5.125,2.305 5.125,5.137 0,2.832 -2.293,5.136 -5.125,5.136 -2.844,0 -5.141,-2.304 -5.141,-5.136 0,-2.852 2.297,-5.137 5.141,-5.137" /><path
         id="path28"
         style="fill:#000000;fill-opacity:1;fill-rule:nonzero;stroke:none"
         d="m 252.832,194.336 c 2.832,0 5.129,2.305 5.129,5.137 0,2.832 -2.297,5.136 -5.129,5.136 -2.844,0 -5.137,-2.304 -5.137,-5.136 0,-2.852 2.293,-5.137 5.137,-5.137" /><path
         id="path30"
         style="fill:#000000;fill-opacity:1;fill-rule:nonzero;stroke:none"
         d="m 416.582,137.344 c 2.832,0 5.129,2.304 5.129,5.136 0,2.833 -2.297,5.137 -5.129,5.137 -2.844,0 -5.137,-2.304 -5.137,-5.137 0,-2.851 2.293,-5.136 5.137,-5.136" /><path
         id="path32"
         style="fill:#000000;fill-opacity:1;fill-rule:nonzero;stroke:none"
         d="m 344.68,137.344 c 2.832,0 5.125,2.304 5.125,5.136 0,2.833 -2.293,5.137 -5.125,5.137 -2.844,0 -5.141,-2.304 -5.141,-5.137 0,-2.851 2.297,-5.136 5.141,-5.136" /><path
         id="path34"
         style="fill:#000000;fill-opacity:1;fill-rule:nonzero;stroke:none"
         d="m 307.832,137.344 c 2.832,0 5.129,2.304 5.129,5.136 0,2.833 -2.297,5.137 -5.129,5.137 -2.844,0 -5.137,-2.304 -5.137,-5.137 0,-2.851 2.293,-5.136 5.137,-5.136" /><path
         id="path36"
         style="fill:#000000;fill-opacity:1;fill-rule:nonzero;stroke:none"
         d="m 235.93,137.344 c 2.832,0 5.125,2.304 5.125,5.136 0,2.833 -2.293,5.137 -5.125,5.137 -2.844,0 -5.141,-2.304 -5.141,-5.137 0,-2.851 2.297,-5.136 5.141,-5.136" /><path
         id="path38"
         style="fill:#000000;fill-opacity:1;fill-rule:nonzero;stroke:none"
         d="m 199.082,137.344 c 2.832,0 5.129,2.304 5.129,5.136 0,2.833 -2.297,5.137 -5.129,5.137 -2.844,0 -5.137,-2.304 -5.137,-5.137 0,-2.851 2.293,-5.136 5.137,-5.136" /><path
         id="path40"
         style="fill:#000000;fill-opacity:1;fill-rule:nonzero;stroke:none"
         d="m 127.18,137.344 c 2.832,0 5.125,2.304 5.125,5.136 0,2.833 -2.293,5.137 -5.125,5.137 -2.844,0 -5.141,-2.304 -5.141,-5.137 0,-2.851 2.297,-5.136 5.141,-5.136" /><path
         id="path42"
         style="fill:#000000;fill-opacity:1;fill-rule:nonzero;stroke:none"
         d="m 90.332,137.344 c 2.8321,0 5.1289,2.304 5.1289,5.136 0,2.833 -2.2968,5.137 -5.1289,5.137 -2.8437,0 -5.1367,-2.304 -5.1367,-5.137 0,-2.851 2.293,-5.136 5.1367,-5.136" /><path
         id="path44"
         style="fill:#000000;fill-opacity:1;fill-rule:nonzero;stroke:none"
         d="m 18.4297,137.344 c 2.832,0 5.125,2.304 5.125,5.136 0,2.833 -2.293,5.137 -5.125,5.137 -2.8438,0 -5.1406,-2.304 -5.1406,-5.137 0,-2.851 2.2968,-5.136 5.1406,-5.136" /><path
         id="path46"
         style="fill:#000000;fill-opacity:1;fill-rule:nonzero;stroke:none"
         d="m 72.1797,80.8008 c 2.832,0 5.125,2.3047 5.125,5.1367 0,2.832 -2.293,5.1367 -5.125,5.1367 -2.8438,0 -5.1406,-2.3047 -5.1406,-5.1367 0,-2.8516 2.2968,-5.1367 5.1406,-5.1367" /><path
         id="path48"
         style="fill:#000000;fill-opacity:1;fill-rule:nonzero;stroke:none"
         d="m 35.332,80.8008 c 2.8321,0 5.1289,2.3047 5.1289,5.1367 0,2.832 -2.2968,5.1367 -5.1289,5.1367 -2.8437,0 -5.1367,-2.3047 -5.1367,-5.1367 0,-2.8516 2.293,-5.1367 5.1367,-5.1367" /><path
         id="path50"
         style="fill:#000000;fill-opacity:1;fill-rule:nonzero;stroke:none"
         d="m 180.93,80.8008 c 2.832,0 5.125,2.3047 5.125,5.1367 0,2.832 -2.293,5.1367 -5.125,5.1367 -2.844,0 -5.141,-2.3047 -5.141,-5.1367 0,-2.8516 2.297,-5.1367 5.141,-5.1367" /><path
         id="path52"
         style="fill:#000000;fill-opacity:1;fill-rule:nonzero;stroke:none"
         d="m 144.082,80.8008 c 2.832,0 5.129,2.3047 5.129,5.1367 0,2.832 -2.297,5.1367 -5.129,5.1367 -2.844,0 -5.137,-2.3047 -5.137,-5.1367 0,-2.8516 2.293,-5.1367 5.137,-5.1367" /><path
         id="path54"
         style="fill:#000000;fill-opacity:1;fill-rule:nonzero;stroke:none"
         d="m 399.16,80.8008 c 2.832,0 5.125,2.3047 5.125,5.1367 0,2.832 -2.293,5.1367 -5.125,5.1367 -2.84,0 -5.137,-2.3047 -5.137,-5.1367 0,-2.8516 2.297,-5.1367 5.137,-5.1367" /><path
         id="path56"
         style="fill:#000000;fill-opacity:1;fill-rule:nonzero;stroke:none"
         d="m 362.316,80.8008 c 2.832,0 5.125,2.3047 5.125,5.1367 0,2.832 -2.293,5.1367 -5.125,5.1367 -2.843,0 -5.136,-2.3047 -5.136,-5.1367 0,-2.8516 2.293,-5.1367 5.136,-5.1367" /><path
         id="path58"
         style="fill:#000000;fill-opacity:1;fill-rule:nonzero;stroke:none"
         d="m 398.43,194.336 c 2.832,0 5.125,2.305 5.125,5.137 0,2.832 -2.293,5.136 -5.125,5.136 -2.844,0 -5.141,-2.304 -5.141,-5.136 0,-2.852 2.297,-5.137 5.141,-5.137" /><path
         id="path60"
         style="fill:#000000;fill-opacity:1;fill-rule:nonzero;stroke:none"
         d="m 361.582,194.336 c 2.832,0 5.129,2.305 5.129,5.137 0,2.832 -2.297,5.136 -5.129,5.136 -2.844,0 -5.137,-2.304 -5.137,-5.136 0,-2.852 2.293,-5.137 5.137,-5.137" /><path
         id="path62"
         style="fill:#000000;fill-opacity:1;fill-rule:nonzero;stroke:none"
         d="m 416.582,23.3594 c 2.832,0 5.129,2.3047 5.129,5.1367 0,2.832 -2.297,5.1367 -5.129,5.1367 -2.844,0 -5.137,-2.3047 -5.137,-5.1367 0,-2.8516 2.293,-5.1367 5.137,-5.1367" /><path
         id="path64"
         style="fill:#000000;fill-opacity:1;fill-rule:nonzero;stroke:none"
         d="m 344.68,23.3594 c 2.832,0 5.125,2.3047 5.125,5.1367 0,2.832 -2.293,5.1367 -5.125,5.1367 -2.844,0 -5.141,-2.3047 -5.141,-5.1367 0,-2.8516 2.297,-5.1367 5.141,-5.1367" /><path
         id="path66"
         style="fill:#000000;fill-opacity:1;fill-rule:nonzero;stroke:none"
         d="m 307.832,23.3594 c 2.832,0 5.129,2.3047 5.129,5.1367 0,2.832 -2.297,5.1367 -5.129,5.1367 -2.844,0 -5.137,-2.3047 -5.137,-5.1367 0,-2.8516 2.293,-5.1367 5.137,-5.1367" /><path
         id="path68"
         style="fill:#000000;fill-opacity:1;fill-rule:nonzero;stroke:none"
         d="m 235.93,23.3594 c 2.832,0 5.125,2.3047 5.125,5.1367 0,2.832 -2.293,5.1367 -5.125,5.1367 -2.844,0 -5.141,-2.3047 -5.141,-5.1367 0,-2.8516 2.297,-5.1367 5.141,-5.1367" /><path
         id="path70"
         style="fill:#000000;fill-opacity:1;fill-rule:nonzero;stroke:none"
         d="m 199.082,23.3594 c 2.832,0 5.129,2.3047 5.129,5.1367 0,2.832 -2.297,5.1367 -5.129,5.1367 -2.844,0 -5.137,-2.3047 -5.137,-5.1367 0,-2.8516 2.293,-5.1367 5.137,-5.1367" /><path
         id="path72"
         style="fill:#000000;fill-opacity:1;fill-rule:nonzero;stroke:none"
         d="m 127.18,23.3594 c 2.832,0 5.125,2.3047 5.125,5.1367 0,2.832 -2.293,5.1367 -5.125,5.1367 -2.844,0 -5.141,-2.3047 -5.141,-5.1367 0,-2.8516 2.297,-5.1367 5.141,-5.1367" /><path
         id="path74"
         style="fill:#000000;fill-opacity:1;fill-rule:nonzero;stroke:none"
         d="m 90.332,23.3594 c 2.8321,0 5.1289,2.3047 5.1289,5.1367 0,2.832 -2.2968,5.1367 -5.1289,5.1367 -2.8437,0 -5.1367,-2.3047 -5.1367,-5.1367 0,-2.8516 2.293,-5.1367 5.1367,-5.1367" /><path
         id="path76"
         style="fill:#000000;fill-opacity:1;fill-rule:nonzero;stroke:none"
         d="m 18.4297,23.3594 c 2.832,0 5.125,2.3047 5.125,5.1367 0,2.832 -2.293,5.1367 -5.125,5.1367 -2.8438,0 -5.1406,-2.3047 -5.1406,-5.1367 0,-2.8516 2.2968,-5.1367 5.1406,-5.1367" /></g></g></svg>