<?xml version="1.0" encoding="UTF-8" standalone="no"?>
<svg
   xmlns:dc="http://purl.org/dc/elements/1.1/"
   xmlns:cc="http://creativecommons.org/ns#"
   xmlns:rdf="http://www.w3.org/1999/02/22-rdf-syntax-ns#"
   xmlns:svg="http://www.w3.org/2000/svg"
   xmlns="http://www.w3.org/2000/svg"
   viewBox="0 0 54.253334 30.4"
   height="30.4"
   width="54.253334"
   xml:space="preserve"
   id="svg2"
   version="1.1"><metadata
     id="metadata8"><rdf:RDF><cc:Work
         rdf:about=""><dc:format>image/svg+xml</dc:format><dc:type
           rdf:resource="http://purl.org/dc/dcmitype/StillImage" /></cc:Work></rdf:RDF></metadata><defs
     id="defs6" /><g
     transform="matrix(1.3333333,0,0,-1.3333333,0,30.4)"
     id="g10"><g
       transform="scale(0.1)"
       id="g12"><path
         id="path14"
         style="fill:none;stroke:#000000;stroke-width:6;stroke-linecap:butt;stroke-linejoin:miter;stroke-miterlimit:4;stroke-dasharray:none;stroke-opacity:1"
         d="M 116.203,206.621 38.957,206.613" /><path
         id="path16"
         style="fill:none;stroke:#000000;stroke-width:6;stroke-linecap:butt;stroke-linejoin:miter;stroke-miterlimit:4;stroke-dasharray:none;stroke-opacity:1"
         d="m 77.7852,206.621 0.0078,-27.09" /><path
         id="path18"
         style="fill:none;stroke:#000000;stroke-width:6;stroke-linecap:butt;stroke-linejoin:miter;stroke-miterlimit:4;stroke-dasharray:none;stroke-opacity:1"
         d="M 319.668,93.0859 H 242.422" /><path
         id="path20"
         style="fill:none;stroke:#000000;stroke-width:6;stroke-linecap:butt;stroke-linejoin:miter;stroke-miterlimit:4;stroke-dasharray:none;stroke-opacity:1"
         d="M 281.262,93.0859 V 66.0078" /><path
         id="path22"
         style="fill:none;stroke:#000000;stroke-width:3;stroke-linecap:butt;stroke-linejoin:miter;stroke-miterlimit:4;stroke-dasharray:none;stroke-opacity:1"
         d="M 72.7344,76.1523 C 84.5117,75.8398 99.6406,82.3828 82.0117,92.9297 64.375,103.477 55.2148,76.6406 72.7344,76.1523 Z" /><path
         id="path24"
         style="fill:none;stroke:#000000;stroke-width:3;stroke-linecap:butt;stroke-linejoin:miter;stroke-miterlimit:4;stroke-dasharray:none;stroke-opacity:1"
         d="m 377.922,190.137 c 11.777,-0.313 26.902,6.23 9.277,16.777 -17.636,10.547 -26.797,-16.289 -9.277,-16.777 z" /><path
         id="path26"
         style="fill:none;stroke:#000000;stroke-width:3;stroke-linecap:butt;stroke-linejoin:miter;stroke-miterlimit:4;stroke-dasharray:none;stroke-opacity:1"
         d="m 377.883,77.1875 c 9.355,-9.1016 28.105,2.8711 10.488,13.418 -17.637,10.5465 -28.633,4.1992 -10.488,-13.418 z" /><path
         id="path28"
         style="fill:none;stroke:#000000;stroke-width:3;stroke-linecap:butt;stroke-linejoin:miter;stroke-miterlimit:4;stroke-dasharray:none;stroke-opacity:1"
         d="m 174.426,77.1875 c 9.355,-9.1016 28.105,2.8711 10.488,13.418 -17.637,10.5465 -28.633,4.1992 -10.488,-13.418 z" /><path
         id="path30"
         style="fill:none;stroke:#000000;stroke-width:3;stroke-linecap:butt;stroke-linejoin:miter;stroke-miterlimit:4;stroke-dasharray:none;stroke-opacity:1"
         d="m 174.453,190.137 c 11.777,-0.313 26.895,6.23 9.277,16.777 -17.636,10.547 -26.796,-16.289 -9.277,-16.777 z" /><path
         id="path32"
         style="fill:none;stroke:#000000;stroke-width:3;stroke-linecap:butt;stroke-linejoin:miter;stroke-miterlimit:4;stroke-dasharray:none;stroke-opacity:1"
         d="m 276.152,191.172 c 9.356,-9.102 28.106,2.871 10.489,13.418 -17.637,10.547 -28.633,4.199 -10.489,-13.418 z" /><path
         id="path34"
         style="fill:none;stroke:#000000;stroke-width:3;stroke-linecap:butt;stroke-linejoin:miter;stroke-miterlimit:4;stroke-dasharray:none;stroke-opacity:1"
         d="m 23.2813,133.848 c 11.4257,-3.567 25.9375,3.886 9.2773,16.757 -22.4414,17.364 -29.67579,-10.41 -9.2773,-16.757 z" /><path
         id="path36"
         style="fill:none;stroke:#000000;stroke-width:3;stroke-linecap:butt;stroke-linejoin:miter;stroke-miterlimit:4;stroke-dasharray:none;stroke-opacity:1"
         d="m 123.945,132.734 c 11.446,-3.554 26.875,6.231 9.278,16.778 -17.637,10.547 -29.629,-10.449 -9.278,-16.778 z" /><path
         id="path38"
         style="fill:none;stroke:#000000;stroke-width:3;stroke-linecap:butt;stroke-linejoin:miter;stroke-miterlimit:4;stroke-dasharray:none;stroke-opacity:1"
         d="m 226.75,133.848 c 11.426,-3.567 25.938,3.886 9.277,16.757 -22.441,17.364 -29.679,-10.41 -9.277,-16.757 z" /><path
         id="path40"
         style="fill:none;stroke:#000000;stroke-width:3;stroke-linecap:butt;stroke-linejoin:miter;stroke-miterlimit:4;stroke-dasharray:none;stroke-opacity:1"
         d="m 327.414,132.734 c 11.445,-3.554 26.875,6.231 9.277,16.778 -17.636,10.547 -29.628,-10.449 -9.277,-16.778 z" /><path
         id="path42"
         style="fill:none;stroke:#000000;stroke-width:3;stroke-linecap:butt;stroke-linejoin:miter;stroke-miterlimit:4;stroke-dasharray:none;stroke-opacity:1"
         d="M 23.3125,19.8633 C 34.7383,16.3008 49.25,23.75 32.5898,36.6211 10.1484,53.9844 2.91016,26.2109 23.3125,19.8633 Z" /><path
         id="path44"
         style="fill:none;stroke:#000000;stroke-width:3;stroke-linecap:butt;stroke-linejoin:miter;stroke-miterlimit:4;stroke-dasharray:none;stroke-opacity:1"
         d="m 123.977,18.75 c 11.445,-3.5547 26.875,6.2305 9.277,16.7773 C 115.613,46.0742 103.625,25.0781 123.977,18.75 Z" /><path
         id="path46"
         style="fill:none;stroke:#000000;stroke-width:3;stroke-linecap:butt;stroke-linejoin:miter;stroke-miterlimit:4;stroke-dasharray:none;stroke-opacity:1"
         d="m 226.777,19.8633 c 11.426,-3.5625 25.938,3.8867 9.278,16.7578 -22.442,17.3633 -29.676,-10.4102 -9.278,-16.7578 z" /><path
         id="path48"
         style="fill:none;stroke:#000000;stroke-width:3;stroke-linecap:butt;stroke-linejoin:miter;stroke-miterlimit:4;stroke-dasharray:none;stroke-opacity:1"
         d="m 327.441,18.75 c 11.446,-3.5547 26.875,6.2305 9.278,16.7773 C 319.082,46.0742 307.09,25.0781 327.441,18.75 Z" /></g></g></svg>