<?xml version="1.0" encoding="UTF-8" standalone="no"?>
<svg
   xmlns:dc="http://purl.org/dc/elements/1.1/"
   xmlns:cc="http://creativecommons.org/ns#"
   xmlns:rdf="http://www.w3.org/1999/02/22-rdf-syntax-ns#"
   xmlns:svg="http://www.w3.org/2000/svg"
   xmlns="http://www.w3.org/2000/svg"
   viewBox="0 0 10.28 15.226667"
   height="15.226667"
   width="10.28"
   xml:space="preserve"
   id="svg2"
   version="1.1"><metadata
     id="metadata8"><rdf:RDF><cc:Work
         rdf:about=""><dc:format>image/svg+xml</dc:format><dc:type
           rdf:resource="http://purl.org/dc/dcmitype/StillImage" /></cc:Work></rdf:RDF></metadata><defs
     id="defs6" /><g
     transform="matrix(1.3333333,0,0,-1.3333333,0,15.226667)"
     id="g10"><g
       transform="scale(0.1)"
       id="g12"><path
         id="path14"
         style="fill:#000000;fill-opacity:1;fill-rule:nonzero;stroke:none"
         d="m 19.3125,80.3359 c 2.8281,0 5.1328,2.3008 5.1328,5.1329 0,2.832 -2.3008,5.1367 -5.1328,5.1367 -2.8359,0 -5.1367,-2.3008 -5.1367,-5.1367 0,-2.836 2.3008,-5.1329 5.1367,-5.1329" /><path
         id="path16"
         style="fill:#000000;fill-opacity:1;fill-rule:nonzero;stroke:none"
         d="m 57.9258,23.6406 c 2.8281,0 5.1328,2.3008 5.1328,5.1328 0,2.836 -2.3008,5.1368 -5.1328,5.1368 -2.836,0 -5.1367,-2.3008 -5.1367,-5.1368 0,-2.832 2.3007,-5.1328 5.1367,-5.1328" /></g></g></svg>