<?xml version="1.0" encoding="UTF-8" standalone="no"?>
<svg
   xmlns:dc="http://purl.org/dc/elements/1.1/"
   xmlns:cc="http://creativecommons.org/ns#"
   xmlns:rdf="http://www.w3.org/1999/02/22-rdf-syntax-ns#"
   xmlns:svg="http://www.w3.org/2000/svg"
   xmlns="http://www.w3.org/2000/svg"
   viewBox="0 0 30.24 15.52"
   height="15.52"
   width="30.24"
   xml:space="preserve"
   id="svg2"
   version="1.1"><metadata
     id="metadata8"><rdf:RDF><cc:Work
         rdf:about=""><dc:format>image/svg+xml</dc:format><dc:type
           rdf:resource="http://purl.org/dc/dcmitype/StillImage" /></cc:Work></rdf:RDF></metadata><defs
     id="defs6" /><g
     transform="matrix(1.3333333,0,0,-1.3333333,0,15.52)"
     id="g10"><g
       transform="scale(0.1)"
       id="g12"><path
         id="path14"
         style="fill:none;stroke:#000000;stroke-width:3;stroke-linecap:butt;stroke-linejoin:miter;stroke-miterlimit:4;stroke-dasharray:none;stroke-opacity:1"
         d="m 107.719,58.207 v 56.688" /><path
         id="path16"
         style="fill:none;stroke:#000000;stroke-width:3;stroke-linecap:butt;stroke-linejoin:miter;stroke-miterlimit:4;stroke-dasharray:none;stroke-opacity:1"
         d="m 221.109,58.207 -0.004,56.688" /><path
         id="path18"
         style="fill:#000000;fill-opacity:1;fill-rule:nonzero;stroke:none"
         d="m 51.0195,81.4102 c 2.8399,0 5.1328,2.3007 5.1328,5.1328 0,2.8359 -2.2929,5.1367 -5.1328,5.1367 -2.8359,0 -5.1289,-2.3008 -5.1289,-5.1367 0,-2.8321 2.2969,-5.1328 5.1289,-5.1328" /><path
         id="path20"
         style="fill:#000000;fill-opacity:1;fill-rule:nonzero;stroke:none"
         d="m 164.41,81.4102 c 2.832,0 5.133,2.3007 5.133,5.1328 0,2.8359 -2.297,5.1367 -5.133,5.1367 -2.836,0 -5.137,-2.3008 -5.137,-5.1367 0,-2.8321 2.301,-5.1328 5.137,-5.1328" /><path
         id="path22"
         style="fill:#000000;fill-opacity:1;fill-rule:nonzero;stroke:none"
         d="m 107.715,24.7188 c 2.836,0 5.133,2.2968 5.133,5.1367 0,2.8359 -2.297,5.1289 -5.133,5.1289 -2.836,0 -5.133,-2.293 -5.133,-5.1289 0,-2.8399 2.297,-5.1367 5.133,-5.1367" /><path
         id="path24"
         style="fill:#000000;fill-opacity:1;fill-rule:nonzero;stroke:none"
         d="m 221.098,24.7188 c 2.84,0 5.136,2.2968 5.136,5.1367 0,2.832 -2.296,5.1289 -5.136,5.1289 -2.832,0 -5.129,-2.293 -5.129,-5.1289 0,-2.8399 2.297,-5.1367 5.129,-5.1367" /><path
         id="path26"
         style="fill:none;stroke:#000000;stroke-width:3;stroke-linecap:butt;stroke-linejoin:miter;stroke-miterlimit:4;stroke-dasharray:none;stroke-opacity:1"
         d="M 226.773,114.895 H 0" /><path
         id="path28"
         style="fill:none;stroke:#000000;stroke-width:3;stroke-linecap:butt;stroke-linejoin:miter;stroke-miterlimit:4;stroke-dasharray:none;stroke-opacity:1"
         d="M 0,58.1992 226.773,58.207" /><path
         id="path30"
         style="fill:none;stroke:#000000;stroke-width:3;stroke-linecap:butt;stroke-linejoin:miter;stroke-miterlimit:4;stroke-dasharray:none;stroke-opacity:1"
         d="M 0,1.5 H 226.773" /><path
         id="path32"
         style="fill:none;stroke:#000000;stroke-width:3;stroke-linecap:butt;stroke-linejoin:miter;stroke-miterlimit:4;stroke-dasharray:none;stroke-opacity:1"
         d="M 164.414,1.52344 V 58.207" /><path
         id="path34"
         style="fill:none;stroke:#000000;stroke-width:3;stroke-linecap:butt;stroke-linejoin:miter;stroke-miterlimit:4;stroke-dasharray:none;stroke-opacity:1"
         d="M 51.0273,1.52344 V 58.207" /></g></g></svg>