<?xml version="1.0" encoding="UTF-8" standalone="no"?>
<svg
   xmlns:dc="http://purl.org/dc/elements/1.1/"
   xmlns:cc="http://creativecommons.org/ns#"
   xmlns:rdf="http://www.w3.org/1999/02/22-rdf-syntax-ns#"
   xmlns:svg="http://www.w3.org/2000/svg"
   xmlns="http://www.w3.org/2000/svg"
   viewBox="0 0 50.773335 30.706667"
   height="30.706667"
   width="50.773335"
   xml:space="preserve"
   id="svg2"
   version="1.1"><metadata
     id="metadata8"><rdf:RDF><cc:Work
         rdf:about=""><dc:format>image/svg+xml</dc:format><dc:type
           rdf:resource="http://purl.org/dc/dcmitype/StillImage" /></cc:Work></rdf:RDF></metadata><defs
     id="defs6" /><g
     transform="matrix(1.3333333,0,0,-1.3333333,0,30.706667)"
     id="g10"><g
       transform="scale(0.1)"
       id="g12"><path
         id="path14"
         style="fill:none;stroke:#000000;stroke-width:3;stroke-linecap:butt;stroke-linejoin:miter;stroke-miterlimit:4;stroke-dasharray:none;stroke-opacity:1"
         d="M 275.203,91.1836 H 197.961" /><path
         id="path16"
         style="fill:none;stroke:#000000;stroke-width:3;stroke-linecap:butt;stroke-linejoin:miter;stroke-miterlimit:4;stroke-dasharray:none;stroke-opacity:1"
         d="M 236.785,91.6016 V 64.5156" /><path
         id="path18"
         style="fill:none;stroke:#000000;stroke-width:3;stroke-linecap:butt;stroke-linejoin:miter;stroke-miterlimit:4;stroke-dasharray:none;stroke-opacity:1"
         d="m 197.961,206.359 c 7.473,-10.964 20.555,-17.675 40.164,-3.746 17.82,12.664 32.961,6.063 39.922,-3.254" /><path
         id="path20"
         style="fill:none;stroke:#000000;stroke-width:3;stroke-linecap:butt;stroke-linejoin:miter;stroke-miterlimit:4;stroke-dasharray:none;stroke-opacity:1"
         d="m 293.16,146.152 c 7.477,-10.957 20.563,-17.672 40.164,-3.738 17.828,12.66 32.961,6.059 39.922,-3.254" /><path
         id="path22"
         style="fill:none;stroke:#000000;stroke-width:3;stroke-linecap:butt;stroke-linejoin:miter;stroke-miterlimit:4;stroke-dasharray:none;stroke-opacity:1"
         d="m 293.16,30.9805 c 7.477,-10.961 20.563,-17.668 40.164,-3.7383 17.828,12.6601 32.961,6.0586 39.922,-3.2539" /><path
         id="path24"
         style="fill:none;stroke:#000000;stroke-width:3;stroke-linecap:butt;stroke-linejoin:miter;stroke-miterlimit:4;stroke-dasharray:none;stroke-opacity:1"
         d="m 102.758,146.152 c 7.476,-10.953 20.558,-17.675 40.168,-3.738 17.812,12.656 32.953,6.063 39.922,-3.254" /><path
         id="path26"
         style="fill:none;stroke:#000000;stroke-width:3;stroke-linecap:butt;stroke-linejoin:miter;stroke-miterlimit:4;stroke-dasharray:none;stroke-opacity:1"
         d="m 102.758,30.9805 c 7.472,-10.9571 20.551,-17.6758 40.168,-3.7383 17.812,12.6562 32.953,6.0586 39.922,-3.2539" /><path
         id="path28"
         style="fill:none;stroke:#000000;stroke-width:3;stroke-linecap:butt;stroke-linejoin:miter;stroke-miterlimit:4;stroke-dasharray:none;stroke-opacity:1"
         d="M 87.6406,199.359 H 10.3945" /><path
         id="path30"
         style="fill:none;stroke:#000000;stroke-width:3;stroke-linecap:butt;stroke-linejoin:miter;stroke-miterlimit:4;stroke-dasharray:none;stroke-opacity:1"
         d="M 49.2266,199.781 V 172.695" /><path
         id="path32"
         style="fill:none;stroke:#000000;stroke-width:3;stroke-linecap:butt;stroke-linejoin:miter;stroke-miterlimit:4;stroke-dasharray:none;stroke-opacity:1"
         d="M 4.71875,98.1797 C 12.1875,87.2266 25.2695,80.5039 44.8828,94.4375 62.6953,107.094 77.8359,100.5 84.8008,91.1836" /></g></g></svg>