<?xml version="1.0" encoding="UTF-8" standalone="no"?>
<svg
   xmlns:dc="http://purl.org/dc/elements/1.1/"
   xmlns:cc="http://creativecommons.org/ns#"
   xmlns:rdf="http://www.w3.org/1999/02/22-rdf-syntax-ns#"
   xmlns:svg="http://www.w3.org/2000/svg"
   xmlns="http://www.w3.org/2000/svg"
   viewBox="0 0 90.946671 45.626667"
   height="45.626667"
   width="90.946671"
   xml:space="preserve"
   id="svg2"
   version="1.1"><metadata
     id="metadata8"><rdf:RDF><cc:Work
         rdf:about=""><dc:format>image/svg+xml</dc:format><dc:type
           rdf:resource="http://purl.org/dc/dcmitype/StillImage" /></cc:Work></rdf:RDF></metadata><defs
     id="defs6" /><g
     transform="matrix(1.3333333,0,0,-1.3333333,0,45.626667)"
     id="g10"><g
       transform="scale(0.1)"
       id="g12"><path
         id="path14"
         style="fill:#000000;fill-opacity:1;fill-rule:nonzero;stroke:none"
         d="m 161.91,287.387 h 8.457 V 222.77 h -9.804 l -32.852,52.195 h -0.188 V 222.77 h -8.457 v 64.617 h 10.344 l 32.313,-52.196 h 0.187 v 52.196" /><path
         id="path16"
         style="fill:#000000;fill-opacity:1;fill-rule:nonzero;stroke:none"
         d="m 182.789,255.527 c 0.352,11.25 7.832,15.661 19.434,15.661 3.789,0 17.461,-1.083 17.461,-13.141 v -27.09 c 0,-1.977 0.996,-2.789 2.617,-2.789 0.711,0 1.699,0.18 2.597,0.363 v -5.761 c -1.347,-0.364 -2.519,-0.899 -4.316,-0.899 -7.012,0 -8.098,3.598 -8.359,7.195 -3.067,-3.328 -7.832,-7.644 -17.012,-7.644 -8.645,0 -14.766,5.488 -14.766,13.586 0,3.961 1.172,13.14 14.317,14.762 l 13.047,1.617 c 1.882,0.179 4.14,0.902 4.14,5.582 0,4.949 -3.605,7.648 -11.074,7.648 -9.004,0 -10.254,-5.492 -10.801,-9.09 z m 28.973,-8.73 c -1.258,-0.992 -3.231,-1.711 -13.047,-2.969 -3.875,-0.543 -10.086,-1.711 -10.086,-7.652 0,-5.125 2.617,-8.188 8.555,-8.188 7.382,0 14.578,4.77 14.578,11.071 v 7.738" /><path
         id="path18"
         style="fill:none;stroke:#000000;stroke-width:3;stroke-linecap:butt;stroke-linejoin:miter;stroke-miterlimit:4;stroke-dasharray:none;stroke-opacity:1"
         d="M 256.02,341.117 207.246,292.359" /><path
         id="path20"
         style="fill:none;stroke:#000000;stroke-width:3;stroke-linecap:butt;stroke-linejoin:miter;stroke-miterlimit:4;stroke-dasharray:none;stroke-opacity:1"
         d="M 170.98,341.117 1.05859,171.09" /><path
         id="path22"
         style="fill:none;stroke:#000000;stroke-width:3;stroke-linecap:butt;stroke-linejoin:miter;stroke-miterlimit:4;stroke-dasharray:none;stroke-opacity:1"
         d="M 85.9414,341.117 1.05859,256.086" /><path
         id="path24"
         style="fill:none;stroke:#000000;stroke-width:3;stroke-linecap:butt;stroke-linejoin:miter;stroke-miterlimit:4;stroke-dasharray:none;stroke-opacity:1"
         d="M 85.9414,341.117 132.051,295.02" /><path
         id="path26"
         style="fill:none;stroke:#000000;stroke-width:3;stroke-linecap:butt;stroke-linejoin:miter;stroke-miterlimit:4;stroke-dasharray:none;stroke-opacity:1"
         d="M 510.941,341.117 680.992,171.09" /><path
         id="path28"
         style="fill:none;stroke:#000000;stroke-width:3;stroke-linecap:butt;stroke-linejoin:miter;stroke-miterlimit:4;stroke-dasharray:none;stroke-opacity:1"
         d="m 595.98,341.117 85,-85.031" /><path
         id="path30"
         style="fill:none;stroke:#000000;stroke-width:3;stroke-linecap:butt;stroke-linejoin:miter;stroke-miterlimit:4;stroke-dasharray:none;stroke-opacity:1"
         d="M 510.941,341.117 170.98,1.05859" /><path
         id="path32"
         style="fill:none;stroke:#000000;stroke-width:3;stroke-linecap:butt;stroke-linejoin:miter;stroke-miterlimit:4;stroke-dasharray:none;stroke-opacity:1"
         d="M 425.902,341.117 85.9414,1.05859" /><path
         id="path34"
         style="fill:none;stroke:#000000;stroke-width:3;stroke-linecap:butt;stroke-linejoin:miter;stroke-miterlimit:4;stroke-dasharray:none;stroke-opacity:1"
         d="M 341.031,341.117 1.05859,1.05859" /><path
         id="path36"
         style="fill:none;stroke:#000000;stroke-width:3;stroke-linecap:butt;stroke-linejoin:miter;stroke-miterlimit:4;stroke-dasharray:none;stroke-opacity:1"
         d="M 132.004,217.133 1.05859,86.0547" /><path
         id="path38"
         style="fill:none;stroke:#000000;stroke-width:3;stroke-linecap:butt;stroke-linejoin:miter;stroke-miterlimit:4;stroke-dasharray:none;stroke-opacity:1"
         d="M 1.05859,171.09 170.98,1.05859" /><path
         id="path40"
         style="fill:none;stroke:#000000;stroke-width:3;stroke-linecap:butt;stroke-linejoin:miter;stroke-miterlimit:4;stroke-dasharray:none;stroke-opacity:1"
         d="M 1.05859,86.0547 85.9414,1.05859" /><path
         id="path42"
         style="fill:none;stroke:#000000;stroke-width:3;stroke-linecap:butt;stroke-linejoin:miter;stroke-miterlimit:4;stroke-dasharray:none;stroke-opacity:1"
         d="M 1.05859,256.086 256.02,1.05859" /><path
         id="path44"
         style="fill:none;stroke:#000000;stroke-width:3;stroke-linecap:butt;stroke-linejoin:miter;stroke-miterlimit:4;stroke-dasharray:none;stroke-opacity:1"
         d="M 1.05859,341.117 341.031,1.05859" /><path
         id="path46"
         style="fill:#000000;fill-opacity:1;fill-rule:nonzero;stroke:none"
         d="m 501.871,117.359 h 8.457 V 52.7383 h -9.805 l -32.851,52.1997 h -0.188 V 52.7383 h -8.457 v 64.6207 h 10.344 l 32.313,-52.1988 h 0.187 v 52.1988" /><path
         id="path48"
         style="fill:#000000;fill-opacity:1;fill-rule:nonzero;stroke:none"
         d="m 522.75,85.4961 c 0.352,11.25 7.832,15.6599 19.434,15.6599 3.789,0 17.461,-1.078 17.461,-13.1404 V 60.9258 c 0,-1.9766 0.996,-2.7852 2.617,-2.7852 0.711,0 1.699,0.1797 2.597,0.3594 v -5.7617 c -1.347,-0.3594 -2.519,-0.8985 -4.316,-0.8985 -7.012,0 -8.098,3.5977 -8.359,7.1993 -3.067,-3.3321 -7.832,-7.6485 -17.012,-7.6485 -8.645,0 -14.766,5.4883 -14.766,13.5899 0,3.9609 1.172,13.1406 14.317,14.7617 l 13.047,1.6133 c 1.882,0.1836 4.14,0.9062 4.14,5.582 0,4.9531 -3.605,7.6523 -11.074,7.6523 -9.004,0 -10.254,-5.4921 -10.801,-9.0937 z m 28.973,-8.7305 c -1.258,-0.9883 -3.231,-1.707 -13.047,-2.9687 -3.875,-0.5391 -10.086,-1.7071 -10.086,-7.6485 0,-5.1289 2.617,-8.1875 8.555,-8.1875 7.382,0 14.578,4.7696 14.578,11.0664 v 7.7383" /><path
         id="path50"
         style="fill:none;stroke:#000000;stroke-width:3;stroke-linecap:butt;stroke-linejoin:miter;stroke-miterlimit:4;stroke-dasharray:none;stroke-opacity:1"
         d="M 680.992,171.09 510.941,1.05859" /><path
         id="path52"
         style="fill:none;stroke:#000000;stroke-width:3;stroke-linecap:butt;stroke-linejoin:miter;stroke-miterlimit:4;stroke-dasharray:none;stroke-opacity:1"
         d="m 680.98,86.0547 -85,-84.99611" /><path
         id="path54"
         style="fill:none;stroke:#000000;stroke-width:3;stroke-linecap:butt;stroke-linejoin:miter;stroke-miterlimit:4;stroke-dasharray:none;stroke-opacity:1"
         d="M 471.965,47.1055 425.902,1.05859" /><path
         id="path56"
         style="fill:none;stroke:#000000;stroke-width:3;stroke-linecap:butt;stroke-linejoin:miter;stroke-miterlimit:4;stroke-dasharray:none;stroke-opacity:1"
         d="M 680.98,256.086 547.207,122.328" /><path
         id="path58"
         style="fill:none;stroke:#000000;stroke-width:3;stroke-linecap:butt;stroke-linejoin:miter;stroke-miterlimit:4;stroke-dasharray:none;stroke-opacity:1"
         d="M 680.992,341.117 341.02,1.05859" /><path
         id="path60"
         style="fill:none;stroke:#000000;stroke-width:3;stroke-linecap:butt;stroke-linejoin:miter;stroke-miterlimit:4;stroke-dasharray:none;stroke-opacity:1"
         d="M 595.98,341.117 256.02,1.05859" /><path
         id="path62"
         style="fill:none;stroke:#000000;stroke-width:3;stroke-linecap:butt;stroke-linejoin:miter;stroke-miterlimit:4;stroke-dasharray:none;stroke-opacity:1"
         d="M 170.98,341.117 510.941,1.05859" /><path
         id="path64"
         style="fill:none;stroke:#000000;stroke-width:3;stroke-linecap:butt;stroke-linejoin:miter;stroke-miterlimit:4;stroke-dasharray:none;stroke-opacity:1"
         d="M 208.469,218.629 425.902,1.05859" /><path
         id="path66"
         style="fill:none;stroke:#000000;stroke-width:3;stroke-linecap:butt;stroke-linejoin:miter;stroke-miterlimit:4;stroke-dasharray:none;stroke-opacity:1"
         d="M 548.43,48.5977 595.98,1.05859" /><path
         id="path68"
         style="fill:none;stroke:#000000;stroke-width:3;stroke-linecap:butt;stroke-linejoin:miter;stroke-miterlimit:4;stroke-dasharray:none;stroke-opacity:1"
         d="M 472.012,124.988 256.02,341.117" /><path
         id="path70"
         style="fill:none;stroke:#000000;stroke-width:3;stroke-linecap:butt;stroke-linejoin:miter;stroke-miterlimit:4;stroke-dasharray:none;stroke-opacity:1"
         d="M 341.02,341.117 680.992,1.05859" /><path
         id="path72"
         style="fill:none;stroke:#000000;stroke-width:3;stroke-linecap:butt;stroke-linejoin:miter;stroke-miterlimit:4;stroke-dasharray:none;stroke-opacity:1"
         d="M 425.902,341.117 680.98,86.0547" /></g></g></svg>