<?xml version="1.0" encoding="UTF-8" standalone="no"?>
<svg
   xmlns:dc="http://purl.org/dc/elements/1.1/"
   xmlns:cc="http://creativecommons.org/ns#"
   xmlns:rdf="http://www.w3.org/1999/02/22-rdf-syntax-ns#"
   xmlns:svg="http://www.w3.org/2000/svg"
   xmlns="http://www.w3.org/2000/svg"
   viewBox="0 0 69.506668 41"
   height="41"
   width="69.506668"
   xml:space="preserve"
   id="svg2"
   version="1.1"><metadata
     id="metadata8"><rdf:RDF><cc:Work
         rdf:about=""><dc:format>image/svg+xml</dc:format><dc:type
           rdf:resource="http://purl.org/dc/dcmitype/StillImage" /></cc:Work></rdf:RDF></metadata><defs
     id="defs6" /><g
     transform="matrix(1.3333333,0,0,-1.3333333,0,41)"
     id="g10"><g
       transform="scale(0.1)"
       id="g12"><path
         id="path14"
         style="fill:#231f20;fill-opacity:1;fill-rule:nonzero;stroke:none"
         d="m 226.148,42.9492 c 0.098,-0.2929 0.098,-0.5 0.098,-0.7929 l -0.605,-0.7032 c -1.895,-0.8945 -4.2,-1.6953 -6.504,-0.6015 -2.793,1.5039 -3.789,1.9023 -5.703,3.4062 l -0.098,0.0977 -2.188,3.9961 c -0.703,1.1015 -1.308,1.707 -2.011,2.4023 -0.703,0.8984 -1.504,1.6016 -2.188,3.1055 l -1.113,0.8984 c -0.488,0.4961 -0.898,1.0938 -1.602,1.1992 l -0.097,0.0977 h -0.098 c -0.801,0.7031 -1.601,0.9961 -2.402,1.5039 -2.09,1.0937 -3.789,2.0977 -4.297,4.1992 -0.391,1.8945 -0.801,5.1953 -0.899,6.3945 -0.898,2.004 -2.207,2.2969 -4.503,2.8047 -0.106,0.0977 -0.106,0.0977 -0.204,0.0977 -0.195,0 -0.402,0 -0.5,0.0976 -3.105,-4.6992 -7.402,-8.7968 -12.703,-12.1992 0.703,-1.2968 1.004,-2.3984 1.407,-3.5039 1.093,-2.7929 1.894,-5 4.296,-7.3906 1.102,-1.1055 1.903,-1.5039 2.996,-2.207 1.907,-1.3008 4.004,-2.5 5.305,-6.3985 v -0.5 c 0,-0.6015 -0.305,-1.0039 -0.898,-1.1992 -0.703,-0.3047 -1.407,0.0977 -1.699,0.8008 -0.899,2.8984 -2.5,3.4961 -4.407,4.5976 -1.199,0.5 -2.597,1.2032 -3.797,2.4063 -3.8,3.7969 -5.5,6.3945 -7.695,10.6914 -3.203,-1.6992 -7.004,-3.3008 -11.309,-5 h -0.097 c -1.192,-0.3984 -1.895,-1.1914 -2.598,-2.0977 -0.898,-1.0937 -1.894,-2.2968 -3.801,-2.5976 -2.8,-0.4024 -4.5,0 -6.101,0.7031 -1.602,0.4961 -3.203,0.9961 -6.094,0.5938 -0.305,0 -0.508,0.0976 -0.801,0.207 -0.207,0.0937 -0.41,0.3984 -0.508,0.8008 -0.097,0.6914 0.301,1.1992 1.004,1.2969 3.301,0.4023 5.207,-0.0977 6.907,-0.8008 1.589,-0.4961 2.89,-0.8985 5.195,-0.6055 1.094,0.3047 1.602,0.9063 2.402,2.4023 0.703,1.504 1.395,2.9024 3.301,3.3985 9.492,3.7031 16.492,9.707 20.801,18.1055 5.098,9.6015 7.098,22.1015 6.191,38.7967 v 0.805 l 11.504,3.094 v -1.2 c 0,-15.8981 -1.387,-26.3981 -4.492,-34.7965 2.305,-1.2969 2.598,-3.6016 3.105,-6.0039 0.293,-1.3008 0.489,-2.793 1.192,-4.2969 l 0.098,-0.1953 V 68.75 c 0,-0.293 0.507,-0.8984 0.898,-1.5937 0.703,-1.1016 1.406,-2.0977 1.699,-3.2032 v -0.0937 c 0.41,-2.0039 0.899,-4.1016 2.813,-5.4024 l 2.793,-1.4062 0.996,-0.5977 0.312,-0.0937 0.996,-2.1016 c 0.703,-1.5039 1.289,-2.7031 2.5,-4.6015 l 1.504,-1.4024 1.485,-1.4961 c 1.308,-1.1055 2.011,-1.3086 3.613,-2.1015 l 1.191,-0.6016 c 1.602,-0.8008 2.696,-1.3008 3.907,-0.5977 0.488,0.293 1.191,0.1953 1.503,-0.5078 v 0" /><path
         id="path16"
         style="fill:#231f20;fill-opacity:1;fill-rule:nonzero;stroke:none"
         d="m 466.738,42.9492 c 0.098,-0.2929 0.098,-0.5 0.098,-0.7929 l -0.606,-0.7032 c -1.894,-0.8945 -4.199,-1.6953 -6.503,-0.6015 -2.793,1.5039 -3.789,1.9023 -5.704,3.4062 l -0.097,0.0977 -2.188,3.9961 c -0.703,1.1015 -1.308,1.707 -2.011,2.4023 -0.704,0.8984 -1.504,1.6016 -2.188,3.1055 l -1.113,0.8984 c -0.488,0.4961 -0.899,1.0938 -1.602,1.1992 l -0.097,0.0977 h -0.098 c -0.801,0.7031 -1.602,0.9961 -2.402,1.5039 -2.09,1.0937 -3.789,2.0977 -4.297,4.1992 -0.391,1.8945 -0.801,5.1953 -0.899,6.3945 -0.898,2.004 -2.207,2.2969 -4.511,2.8047 -0.098,0.0977 -0.098,0.0977 -0.196,0.0977 -0.195,0 -0.41,0 -0.508,0.0976 -3.105,-4.6992 -7.402,-8.7968 -12.695,-12.1992 0.703,-1.2968 0.996,-2.3984 1.406,-3.5039 1.094,-2.7929 1.895,-5 4.297,-7.3906 1.094,-1.1055 1.895,-1.5039 2.989,-2.207 1.914,-1.3008 4.003,-2.5 5.312,-6.3985 v -0.5 c 0,-0.6015 -0.312,-1.0039 -0.898,-1.1992 -0.704,-0.3047 -1.407,0.0977 -1.7,0.8008 -0.898,2.8984 -2.5,3.4961 -4.414,4.5976 -1.191,0.5 -2.597,1.2032 -3.789,2.4063 -3.808,3.7969 -5.508,6.3945 -7.695,10.6914 -3.203,-1.6992 -7.012,-3.3008 -11.309,-5 h -0.097 c -1.192,-0.3984 -1.895,-1.1914 -2.598,-2.0977 -0.898,-1.0937 -1.895,-2.2968 -3.809,-2.5976 -2.793,-0.4024 -4.492,0 -6.093,0.7031 -1.602,0.4961 -3.203,0.9961 -6.094,0.5938 -0.313,0 -0.508,0.0976 -0.801,0.207 -0.215,0.0937 -0.41,0.3984 -0.508,0.8008 -0.097,0.6914 0.293,1.1992 0.996,1.2969 3.301,0.4023 5.215,-0.0977 6.914,-0.8008 1.583,-0.4961 2.891,-0.8985 5.196,-0.6055 1.094,0.3047 1.601,0.9063 2.402,2.4023 0.703,1.504 1.387,2.9024 3.301,3.3985 9.492,3.7031 16.484,9.707 20.801,18.1055 5.097,9.6015 7.09,22.1015 6.191,38.7967 v 0.805 l 11.504,3.094 v -1.2 c 0,-15.8981 -1.387,-26.3981 -4.492,-34.7965 2.305,-1.2969 2.597,-3.6016 3.105,-6.0039 0.293,-1.3008 0.489,-2.793 1.192,-4.2969 l 0.097,-0.1953 V 68.75 c 0,-0.293 0.508,-0.8984 0.899,-1.5937 0.703,-1.1016 1.406,-2.0977 1.699,-3.2032 v -0.0937 c 0.41,-2.0039 0.898,-4.1016 2.813,-5.4024 l 2.792,-1.4062 0.997,-0.5977 0.312,-0.0937 0.996,-2.1016 c 0.703,-1.5039 1.289,-2.7031 2.5,-4.6015 l 1.504,-1.4024 1.484,-1.4961 c 1.309,-1.1055 2.012,-1.3086 3.614,-2.1015 l 1.191,-0.6016 c 1.602,-0.8008 2.695,-1.3008 3.906,-0.5977 0.489,0.293 1.192,0.1953 1.504,-0.5078 v 0" /><path
         id="path18"
         style="fill:#231f20;fill-opacity:1;fill-rule:nonzero;stroke:none"
         d="m 120.098,184.355 c 0.097,-0.292 0.097,-0.496 0.097,-0.789 l -0.605,-0.707 c -1.895,-0.894 -4.199,-1.699 -6.504,-0.601 -2.793,1.504 -3.789,1.902 -5.703,3.406 l -0.098,0.098 -2.187,3.996 c -0.703,1.101 -1.309,1.707 -2.012,2.398 -0.703,0.903 -1.504,1.606 -2.188,3.11 l -1.1128,0.894 c -0.4883,0.5 -0.8985,1.098 -1.6016,1.203 l -0.0977,0.098 h -0.0976 c -0.8008,0.703 -1.6016,0.996 -2.4024,1.504 -2.0898,1.094 -3.789,2.101 -4.2968,4.199 -0.3907,1.895 -0.8008,5.195 -0.8985,6.399 -0.8984,2 -2.207,2.292 -4.5,2.8 -0.1093,0.098 -0.1093,0.098 -0.207,0.098 -0.1953,0 -0.3984,0 -0.5,0.098 -3.1016,-4.696 -7.4023,-8.797 -12.7031,-12.2 0.7031,-1.296 1.0039,-2.398 1.4062,-3.504 1.0938,-2.792 1.8946,-5 4.2969,-7.39 1.1016,-1.106 1.9062,-1.504 2.9961,-2.207 1.9062,-1.301 4.0039,-2.5 5.3047,-6.399 v -0.5 c 0,-0.601 -0.3047,-1.004 -0.8985,-1.199 -0.7031,-0.301 -1.4062,0.098 -1.6992,0.801 -0.8984,2.898 -2.5,3.496 -4.4062,4.602 -1.1992,0.496 -2.5938,1.199 -3.7969,2.402 -3.7969,3.797 -5.5,6.394 -7.6953,10.691 -3.2031,-1.699 -7.0039,-3.301 -11.3086,-5 H 56.582 c -1.1914,-0.398 -1.8945,-1.191 -2.5976,-2.097 -0.8985,-1.094 -1.8946,-2.297 -3.8008,-2.598 -2.8008,-0.402 -4.5,0 -6.1016,0.699 -1.6015,0.5 -3.2031,0.996 -6.0937,0.598 -0.3047,0 -0.5078,0.097 -0.8008,0.207 -0.207,0.098 -0.4102,0.398 -0.5078,0.801 -0.0977,0.691 0.3008,1.199 1.0039,1.297 3.3008,0.402 5.207,-0.098 6.9062,-0.801 1.5899,-0.496 2.8907,-0.899 5.1954,-0.606 1.0937,0.305 1.6015,0.91 2.4023,2.403 0.7031,1.504 1.3984,2.902 3.3008,3.398 9.4922,3.699 16.4922,9.707 20.8008,18.106 5.0976,9.601 7.1015,22.101 6.1914,38.8 v 0.801 l 11.5039,3.094 v -1.199 c 0,-15.899 -1.3867,-26.399 -4.4922,-34.797 2.3047,-1.297 2.5976,-3.602 3.1055,-6.004 0.2929,-1.301 0.4882,-2.793 1.1914,-4.297 l 0.0976,-0.195 v -0.11 c 0,-0.293 0.5078,-0.898 0.8985,-1.59 0.7031,-1.105 1.4062,-2.101 1.6992,-3.207 v -0.093 c 0.4101,-2.004 0.8984,-4.106 2.8125,-5.403 l 2.7931,-1.406 0.996,-0.598 0.312,-0.093 0.997,-2.102 c 0.703,-1.504 1.289,-2.703 2.5,-4.598 l 1.503,-1.41 1.485,-1.492 c 1.308,-1.101 2.012,-1.309 3.613,-2.098 l 1.192,-0.605 c 1.601,-0.805 2.695,-1.301 3.906,-0.598 0.488,0.293 1.191,0.196 1.504,-0.508 v 0" /><path
         id="path20"
         style="fill:#231f20;fill-opacity:1;fill-rule:nonzero;stroke:none"
         d="m 360.691,184.355 c 0.102,-0.292 0.102,-0.496 0.102,-0.789 l -0.605,-0.707 c -1.895,-0.894 -4.204,-1.699 -6.504,-0.601 -2.793,1.504 -3.789,1.902 -5.704,3.406 l -0.097,0.098 -2.192,3.996 c -0.703,1.101 -1.304,1.707 -2.007,2.398 -0.704,0.903 -1.504,1.606 -2.192,3.11 l -1.109,0.894 c -0.488,0.5 -0.903,1.098 -1.606,1.203 l -0.093,0.098 h -0.098 c -0.805,0.703 -1.606,0.996 -2.402,1.504 -2.09,1.094 -3.789,2.101 -4.297,4.199 -0.395,1.895 -0.801,5.195 -0.903,6.399 -0.894,2 -2.207,2.292 -4.507,2.8 -0.098,0.098 -0.098,0.098 -0.2,0.098 -0.191,0 -0.41,0 -0.507,0.098 -3.102,-4.696 -7.403,-8.797 -12.696,-12.2 0.703,-1.296 0.996,-2.398 1.406,-3.504 1.094,-2.792 1.899,-5 4.297,-7.39 1.094,-1.106 1.899,-1.504 2.993,-2.207 1.914,-1.301 4,-2.5 5.308,-6.399 v -0.5 c 0,-0.601 -0.308,-1.004 -0.894,-1.199 -0.704,-0.301 -1.411,0.098 -1.704,0.801 -0.894,2.898 -2.5,3.496 -4.414,4.602 -1.187,0.496 -2.593,1.199 -3.789,2.402 -3.804,3.797 -5.507,6.394 -7.691,10.691 -3.203,-1.699 -7.016,-3.301 -11.313,-5 h -0.093 c -1.196,-0.398 -1.899,-1.191 -2.602,-2.097 -0.894,-1.094 -1.89,-2.297 -3.808,-2.598 -2.79,-0.402 -4.493,0 -6.09,0.699 -1.606,0.5 -3.203,0.996 -6.094,0.598 -0.316,0 -0.512,0.097 -0.805,0.207 -0.215,0.098 -0.41,0.398 -0.508,0.801 -0.093,0.691 0.293,1.199 0.997,1.297 3.3,0.402 5.214,-0.098 6.918,-0.801 1.582,-0.496 2.886,-0.899 5.195,-0.606 1.094,0.305 1.597,0.91 2.398,2.403 0.703,1.504 1.391,2.902 3.305,3.398 9.488,3.699 16.48,9.707 20.801,18.106 5.093,9.601 7.09,22.101 6.187,38.8 v 0.801 l 11.504,3.094 v -1.199 c 0,-15.899 -1.387,-26.399 -4.488,-34.797 2.305,-1.297 2.598,-3.602 3.101,-6.004 0.293,-1.301 0.493,-2.793 1.196,-4.297 l 0.093,-0.195 v -0.11 c 0,-0.293 0.508,-0.898 0.903,-1.59 0.703,-1.105 1.402,-2.101 1.695,-3.207 v -0.093 c 0.41,-2.004 0.902,-4.106 2.817,-5.403 l 2.793,-1.406 0.996,-0.598 0.308,-0.093 0.996,-2.102 c 0.703,-1.504 1.289,-2.703 2.5,-4.598 l 1.504,-1.41 1.488,-1.492 c 1.305,-1.101 2.008,-1.309 3.614,-2.098 l 1.187,-0.605 c 1.606,-0.805 2.699,-1.301 3.907,-0.598 0.492,0.293 1.195,0.196 1.503,-0.508 v 0" /></g></g></svg>