<?xml version="1.0" encoding="UTF-8" standalone="no"?>
<svg
   xmlns:dc="http://purl.org/dc/elements/1.1/"
   xmlns:cc="http://creativecommons.org/ns#"
   xmlns:rdf="http://www.w3.org/1999/02/22-rdf-syntax-ns#"
   xmlns:svg="http://www.w3.org/2000/svg"
   xmlns="http://www.w3.org/2000/svg"
   viewBox="0 0 69.506668 41"
   height="41"
   width="69.506668"
   xml:space="preserve"
   id="svg2"
   version="1.1"><metadata
     id="metadata8"><rdf:RDF><cc:Work
         rdf:about=""><dc:format>image/svg+xml</dc:format><dc:type
           rdf:resource="http://purl.org/dc/dcmitype/StillImage" /></cc:Work></rdf:RDF></metadata><defs
     id="defs6" /><g
     transform="matrix(1.3333333,0,0,-1.3333333,0,41)"
     id="g10"><g
       transform="scale(0.1)"
       id="g12"><path
         id="path14"
         style="fill:#231f20;fill-opacity:1;fill-rule:nonzero;stroke:none"
         d="m 127.004,187.695 c 0,6.387 -10.078,11.563 -22.5,11.563 -12.422,0 -22.5001,-5.176 -22.5001,-11.563 0,-6.386 10.0781,-11.562 22.5001,-11.562 12.422,0 22.5,5.176 22.5,11.562" /><path
         id="path16"
         style="fill:#231f20;fill-opacity:1;fill-rule:nonzero;stroke:none"
         d="m 251.379,187.695 c 0,6.387 -10.078,11.563 -22.5,11.563 -12.426,0 -22.5,-5.176 -22.5,-11.563 0,-6.386 10.074,-11.562 22.5,-11.562 12.422,0 22.5,5.176 22.5,11.562" /><path
         id="path18"
         style="fill:#231f20;fill-opacity:1;fill-rule:nonzero;stroke:none"
         d="m 375.754,187.695 c 0,6.387 -10.078,11.563 -22.5,11.563 -12.426,0 -22.5,-5.176 -22.5,-11.563 0,-6.386 10.074,-11.562 22.5,-11.562 12.422,0 22.5,5.176 22.5,11.562" /><path
         id="path20"
         style="fill:#231f20;fill-opacity:1;fill-rule:nonzero;stroke:none"
         d="m 500.129,187.695 c 0,6.387 -10.078,11.563 -22.5,11.563 -12.426,0 -22.5,-5.176 -22.5,-11.563 0,-6.386 10.074,-11.562 22.5,-11.562 12.422,0 22.5,5.176 22.5,11.562" /><path
         id="path22"
         style="fill:#231f20;fill-opacity:1;fill-rule:nonzero;stroke:none"
         d="m 127.004,48.3203 c 0,6.3867 -10.078,11.5625 -22.5,11.5625 -12.422,0 -22.5001,-5.1758 -22.5001,-11.5625 0,-6.3867 10.0781,-11.5625 22.5001,-11.5625 12.422,0 22.5,5.1758 22.5,11.5625" /><path
         id="path24"
         style="fill:#231f20;fill-opacity:1;fill-rule:nonzero;stroke:none"
         d="m 251.379,48.3203 c 0,6.3867 -10.078,11.5625 -22.5,11.5625 -12.426,0 -22.5,-5.1758 -22.5,-11.5625 0,-6.3867 10.074,-11.5625 22.5,-11.5625 12.422,0 22.5,5.1758 22.5,11.5625" /><path
         id="path26"
         style="fill:#231f20;fill-opacity:1;fill-rule:nonzero;stroke:none"
         d="m 375.754,48.3203 c 0,6.3867 -10.078,11.5625 -22.5,11.5625 -12.426,0 -22.5,-5.1758 -22.5,-11.5625 0,-6.3867 10.074,-11.5625 22.5,-11.5625 12.422,0 22.5,5.1758 22.5,11.5625" /><path
         id="path28"
         style="fill:#231f20;fill-opacity:1;fill-rule:nonzero;stroke:none"
         d="m 500.129,48.3203 c 0,6.3867 -10.078,11.5625 -22.5,11.5625 -12.426,0 -22.5,-5.1758 -22.5,-11.5625 0,-6.3867 10.074,-11.5625 22.5,-11.5625 12.422,0 22.5,5.1758 22.5,11.5625" /><path
         id="path30"
         style="fill:#231f20;fill-opacity:1;fill-rule:nonzero;stroke:none"
         d="m 65.7539,117.695 c 0,6.387 -10.082,11.563 -22.5,11.563 -12.4219,0 -22.5,-5.176 -22.5,-11.563 0,-6.386 10.0781,-11.562 22.5,-11.562 12.418,0 22.5,5.176 22.5,11.562" /><path
         id="path32"
         style="fill:#231f20;fill-opacity:1;fill-rule:nonzero;stroke:none"
         d="m 190.129,117.695 c 0,6.387 -10.078,11.563 -22.5,11.563 -12.426,0 -22.5,-5.176 -22.5,-11.563 0,-6.386 10.074,-11.562 22.5,-11.562 12.422,0 22.5,5.176 22.5,11.562" /><path
         id="path34"
         style="fill:#231f20;fill-opacity:1;fill-rule:nonzero;stroke:none"
         d="m 314.504,117.695 c 0,6.387 -10.078,11.563 -22.5,11.563 -12.426,0 -22.5,-5.176 -22.5,-11.563 0,-6.386 10.074,-11.562 22.5,-11.562 12.422,0 22.5,5.176 22.5,11.562" /><path
         id="path36"
         style="fill:#231f20;fill-opacity:1;fill-rule:nonzero;stroke:none"
         d="m 438.879,117.695 c 0,6.387 -10.078,11.563 -22.5,11.563 -12.426,0 -22.5,-5.176 -22.5,-11.563 0,-6.386 10.074,-11.562 22.5,-11.562 12.422,0 22.5,5.176 22.5,11.562" /><path
         id="path38"
         style="fill:#231f20;fill-opacity:1;fill-rule:nonzero;stroke:none"
         d="m 65.7539,257.695 c 0,6.387 -10.082,11.563 -22.5,11.563 -12.4219,0 -22.5,-5.176 -22.5,-11.563 0,-6.386 10.0781,-11.562 22.5,-11.562 12.418,0 22.5,5.176 22.5,11.562" /><path
         id="path40"
         style="fill:#231f20;fill-opacity:1;fill-rule:nonzero;stroke:none"
         d="m 190.129,257.695 c 0,6.387 -10.078,11.563 -22.5,11.563 -12.426,0 -22.5,-5.176 -22.5,-11.563 0,-6.386 10.074,-11.562 22.5,-11.562 12.422,0 22.5,5.176 22.5,11.562" /><path
         id="path42"
         style="fill:#231f20;fill-opacity:1;fill-rule:nonzero;stroke:none"
         d="m 314.504,257.695 c 0,6.387 -10.078,11.563 -22.5,11.563 -12.426,0 -22.5,-5.176 -22.5,-11.563 0,-6.386 10.074,-11.562 22.5,-11.562 12.422,0 22.5,5.176 22.5,11.562" /><path
         id="path44"
         style="fill:#231f20;fill-opacity:1;fill-rule:nonzero;stroke:none"
         d="m 438.879,257.695 c 0,6.387 -10.078,11.563 -22.5,11.563 -12.426,0 -22.5,-5.176 -22.5,-11.563 0,-6.386 10.074,-11.562 22.5,-11.562 12.422,0 22.5,5.176 22.5,11.562" /></g></g></svg>