<?xml version="1.0" encoding="UTF-8" standalone="no"?>
<svg
   xmlns:dc="http://purl.org/dc/elements/1.1/"
   xmlns:cc="http://creativecommons.org/ns#"
   xmlns:rdf="http://www.w3.org/1999/02/22-rdf-syntax-ns#"
   xmlns:svg="http://www.w3.org/2000/svg"
   xmlns="http://www.w3.org/2000/svg"
   viewBox="0 0 91.839996 46.48"
   height="46.48"
   width="91.839996"
   xml:space="preserve"
   id="svg2"
   version="1.1"><metadata
     id="metadata8"><rdf:RDF><cc:Work
         rdf:about=""><dc:format>image/svg+xml</dc:format><dc:type
           rdf:resource="http://purl.org/dc/dcmitype/StillImage" /></cc:Work></rdf:RDF></metadata><defs
     id="defs6" /><g
     transform="matrix(1.3333333,0,0,-1.3333333,0,46.48)"
     id="g10"><g
       transform="scale(0.1)"
       id="g12"><path
         id="path14"
         style="fill:none;stroke:#000000;stroke-width:6;stroke-linecap:square;stroke-linejoin:miter;stroke-miterlimit:4;stroke-dasharray:none;stroke-opacity:1"
         d="M 4.24219,294.367 294.395,4.24219" /><path
         id="path16"
         style="fill:none;stroke:#000000;stroke-width:6;stroke-linecap:square;stroke-linejoin:miter;stroke-miterlimit:4;stroke-dasharray:none;stroke-opacity:1"
         d="M 161.543,222.129 379.434,4.24219" /><path
         id="path18"
         style="fill:none;stroke:#000000;stroke-width:6;stroke-linecap:square;stroke-linejoin:miter;stroke-miterlimit:4;stroke-dasharray:none;stroke-opacity:1"
         d="M 39.2891,344.375 81.2773,302.387" /><path
         id="path20"
         style="fill:none;stroke:#000000;stroke-width:6;stroke-linecap:square;stroke-linejoin:miter;stroke-miterlimit:4;stroke-dasharray:none;stroke-opacity:1"
         d="M 124.324,344.375 464.48,4.24219" /><path
         id="path22"
         style="fill:none;stroke:#000000;stroke-width:6;stroke-linecap:square;stroke-linejoin:miter;stroke-miterlimit:4;stroke-dasharray:none;stroke-opacity:1"
         d="M 501.711,52.0625 549.531,4.24219" /><path
         id="path24"
         style="fill:none;stroke:#000000;stroke-width:6;stroke-linecap:square;stroke-linejoin:miter;stroke-miterlimit:4;stroke-dasharray:none;stroke-opacity:1"
         d="M 209.363,344.375 421.445,132.32" /><path
         id="path26"
         style="fill:none;stroke:#000000;stroke-width:6;stroke-linecap:square;stroke-linejoin:miter;stroke-miterlimit:4;stroke-dasharray:none;stroke-opacity:1"
         d="M 294.414,344.375 634.57,4.24219" /><path
         id="path28"
         style="fill:none;stroke:#000000;stroke-width:6;stroke-linecap:square;stroke-linejoin:miter;stroke-miterlimit:4;stroke-dasharray:none;stroke-opacity:1"
         d="M 379.465,344.375 684.57,39.2773" /><path
         id="path30"
         style="fill:none;stroke:#000000;stroke-width:6;stroke-linecap:square;stroke-linejoin:miter;stroke-miterlimit:4;stroke-dasharray:none;stroke-opacity:1"
         d="M 464.504,344.375 684.57,124.336" /><path
         id="path32"
         style="fill:none;stroke:#000000;stroke-width:6;stroke-linecap:square;stroke-linejoin:miter;stroke-miterlimit:4;stroke-dasharray:none;stroke-opacity:1"
         d="M 549.543,344.375 684.57,209.328" /><path
         id="path34"
         style="fill:none;stroke:#000000;stroke-width:6;stroke-linecap:square;stroke-linejoin:miter;stroke-miterlimit:4;stroke-dasharray:none;stroke-opacity:1"
         d="m 634.59,344.375 49.98,-49.961" /><path
         id="path36"
         style="fill:none;stroke:#000000;stroke-width:6;stroke-linecap:square;stroke-linejoin:miter;stroke-miterlimit:4;stroke-dasharray:none;stroke-opacity:1"
         d="M 4.24219,39.2383 39.2578,4.24219" /><path
         id="path38"
         style="fill:none;stroke:#000000;stroke-width:6;stroke-linecap:square;stroke-linejoin:miter;stroke-miterlimit:4;stroke-dasharray:none;stroke-opacity:1"
         d="M 4.24219,124.289 124.305,4.24219" /><path
         id="path40"
         style="fill:none;stroke:#000000;stroke-width:6;stroke-linecap:square;stroke-linejoin:miter;stroke-miterlimit:4;stroke-dasharray:none;stroke-opacity:1"
         d="M 4.24219,209.375 209.355,4.24219" /><path
         id="path42"
         style="fill:#000000;fill-opacity:1;fill-rule:nonzero;stroke:none"
         d="m 88.2695,235.293 h -7.2734 v 53.848 H 118.27 v -6.446 H 88.2695 v -16.504 h 26.3985 v -6.445 H 88.2695 v -24.453" /><path
         id="path44"
         style="fill:#000000;fill-opacity:1;fill-rule:nonzero;stroke:none"
         d="m 149.551,264.094 h 23.613 v -28.801 h -4.719 l -1.726,6.973 c -3.672,-5.098 -10.43,-8.399 -17.774,-8.399 -9.218,0 -13.73,3.379 -16.504,6.074 -8.242,7.805 -8.476,17.032 -8.476,22.727 0,13.125 7.949,27.898 25.508,27.898 10.047,0 21.218,-5.691 22.793,-17.773 h -7.051 c -2.324,9.375 -10.195,11.328 -16.113,11.328 -9.688,0 -17.637,-7.723 -17.637,-21.824 0,-10.949 3.601,-22.199 17.93,-22.199 2.695,0 7.05,0.304 11.027,3.449 4.723,3.75 5.926,8.555 5.926,14.324 h -16.797 v 6.223" /><path
         id="path46"
         style="fill:#000000;fill-opacity:1;fill-rule:nonzero;stroke:none"
         d="m 428.426,65.2344 h -7.274 v 53.8476 h 37.274 v -6.453 h -30 V 96.1328 h 26.398 V 89.6797 H 428.426 V 65.2344" /><path
         id="path48"
         style="fill:#000000;fill-opacity:1;fill-rule:nonzero;stroke:none"
         d="M 489.707,94.0313 H 513.32 V 65.2344 h -4.718 l -1.727,6.9726 c -3.672,-5.0976 -10.43,-8.3984 -17.773,-8.3984 -9.219,0 -13.731,3.3711 -16.504,6.0742 -8.243,7.8047 -8.477,17.0235 -8.477,22.7266 0,13.1246 7.949,27.8986 25.508,27.8986 10.047,0 21.219,-5.692 22.793,-17.774 h -7.051 c -2.324,9.375 -10.195,11.321 -16.113,11.321 -9.688,0 -17.637,-7.715 -17.637,-21.8167 0,-10.957 3.602,-22.207 17.93,-22.207 2.695,0 7.051,0.3125 11.023,3.457 4.727,3.75 5.93,8.5547 5.93,14.3164 h -16.797 v 6.2266" /></g></g></svg>