<?xml version="1.0" encoding="UTF-8" standalone="no"?>
<svg
   xmlns:dc="http://purl.org/dc/elements/1.1/"
   xmlns:cc="http://creativecommons.org/ns#"
   xmlns:rdf="http://www.w3.org/1999/02/22-rdf-syntax-ns#"
   xmlns:svg="http://www.w3.org/2000/svg"
   xmlns="http://www.w3.org/2000/svg"
   viewBox="0 0 11.333333 21"
   height="21"
   width="11.333333"
   xml:space="preserve"
   id="svg2"
   version="1.1"><metadata
     id="metadata8"><rdf:RDF><cc:Work
         rdf:about=""><dc:format>image/svg+xml</dc:format><dc:type
           rdf:resource="http://purl.org/dc/dcmitype/StillImage" /></cc:Work></rdf:RDF></metadata><defs
     id="defs6" /><g
     transform="matrix(1.3333333,0,0,-1.3333333,0,21)"
     id="g10"><g
       transform="scale(0.1)"
       id="g12"><path
         id="path14"
         style="fill:#000000;fill-opacity:1;fill-rule:nonzero;stroke:none"
         d="M 13.2617,91.2031 H 5.98828 V 145.051 H 30.207 c 9.9805,0 15.9766,-6.457 15.9766,-15.149 0,-7.5 -4.2773,-15.976 -15.9766,-15.976 H 13.2617 Z m 0,28.9419 h 14.4727 c 6.5351,0 10.9492,2.406 10.9492,9.679 0,6.824 -4.6484,9.004 -10.6445,9.004 H 13.2617 v -18.683" /><path
         id="path16"
         style="fill:#000000;fill-opacity:1;fill-rule:nonzero;stroke:none"
         d="m 46.125,12.4531 h -7.2656 v 53.8477 h 24.2187 c 9.9805,0 15.9766,-6.457 15.9766,-15.1485 0,-7.5 -4.2774,-15.9765 -15.9766,-15.9765 H 46.125 Z m 0,28.9414 h 14.4727 c 6.5312,0 10.957,2.4063 10.957,9.6797 0,6.8242 -4.6484,9.0039 -10.6445,9.0039 H 46.125 V 41.3945" /></g></g></svg>