<?xml version="1.0" encoding="UTF-8" standalone="no"?>
<svg
   xmlns:dc="http://purl.org/dc/elements/1.1/"
   xmlns:cc="http://creativecommons.org/ns#"
   xmlns:rdf="http://www.w3.org/1999/02/22-rdf-syntax-ns#"
   xmlns:svg="http://www.w3.org/2000/svg"
   xmlns="http://www.w3.org/2000/svg"
   viewBox="0 0 45.84 21.506666"
   height="21.506666"
   width="45.84"
   xml:space="preserve"
   id="svg2"
   version="1.1"><metadata
     id="metadata8"><rdf:RDF><cc:Work
         rdf:about=""><dc:format>image/svg+xml</dc:format><dc:type
           rdf:resource="http://purl.org/dc/dcmitype/StillImage" /></cc:Work></rdf:RDF></metadata><defs
     id="defs6" /><g
     transform="matrix(1.3333333,0,0,-1.3333333,0,21.506667)"
     id="g10"><g
       transform="scale(0.1)"
       id="g12"><path
         id="path14"
         style="fill:none;stroke:#000000;stroke-width:3;stroke-linecap:butt;stroke-linejoin:miter;stroke-miterlimit:4;stroke-dasharray:none;stroke-opacity:1"
         d="M 128.77,120.957 C 105,92.9844 72.5,93.7695 43.125,120.957 72.5,148.145 105,148.93 128.77,120.957 Z" /><path
         id="path16"
         style="fill:#000000;fill-opacity:1;fill-rule:nonzero;stroke:none"
         d="m 85.6445,125.211 c -2.3437,0 -4.2578,-1.906 -4.2578,-4.254 0,-2.348 1.9141,-4.25 4.2578,-4.25 2.3438,0 4.2578,1.902 4.2578,4.25 0,2.348 -1.914,4.254 -4.2578,4.254" /><path
         id="path18"
         style="fill:none;stroke:#000000;stroke-width:3;stroke-linecap:butt;stroke-linejoin:miter;stroke-miterlimit:4;stroke-dasharray:none;stroke-opacity:1"
         d="m 300.645,40.332 c -23.77,-27.9726 -56.27,-27.1875 -85.645,0 29.375,27.1875 61.875,27.9727 85.645,0 z" /><path
         id="path20"
         style="fill:#000000;fill-opacity:1;fill-rule:nonzero;stroke:none"
         d="m 257.52,44.5859 c -2.344,0 -4.258,-1.9062 -4.258,-4.2539 0,-2.3476 1.914,-4.25 4.258,-4.25 2.343,0 4.257,1.9024 4.257,4.25 0,2.3477 -1.914,4.2539 -4.257,4.2539" /></g></g></svg>