<?xml version="1.0" encoding="UTF-8" standalone="no"?>
<svg
   xmlns:dc="http://purl.org/dc/elements/1.1/"
   xmlns:cc="http://creativecommons.org/ns#"
   xmlns:rdf="http://www.w3.org/1999/02/22-rdf-syntax-ns#"
   xmlns:svg="http://www.w3.org/2000/svg"
   xmlns="http://www.w3.org/2000/svg"
   viewBox="0 0 52.0625 21.262501"
   height="21.262501"
   width="52.0625"
   xml:space="preserve"
   version="1.1"
   id="svg2"><metadata
     id="metadata8"><rdf:RDF><cc:Work
         rdf:about=""><dc:format>image/svg+xml</dc:format><dc:type
           rdf:resource="http://purl.org/dc/dcmitype/StillImage" /></cc:Work></rdf:RDF></metadata><defs
     id="defs6" /><g
     transform="matrix(1.25,0,0,-1.25,0,21.2625)"
     id="g10"><g
       transform="scale(0.1,0.1)"
       id="g12"><path
         id="path14"
         style="fill:#000000;fill-opacity:1;fill-rule:nonzero;stroke:none"
         d="m 103.801,121.758 c 13.496,0 24.453,6.355 24.453,14.18 0,7.832 -10.957,14.167 -24.453,14.167 -13.4963,0 -24.4533,-6.335 -24.4533,-14.167 0,-7.825 10.957,-14.18 24.4533,-14.18" /><path
         id="path16"
         style="fill:none;stroke:#000000;stroke-width:6;stroke-linecap:butt;stroke-linejoin:miter;stroke-miterlimit:4;stroke-dasharray:none;stroke-opacity:1"
         d="m 58.6133,136.563 91.0077,0" /><path
         id="path18"
         style="fill:#000000;fill-opacity:1;fill-rule:nonzero;stroke:none"
         d="m 312.047,18.0078 c 13.496,0 24.433,6.3555 24.433,14.1797 0,7.832 -10.937,14.168 -24.433,14.168 -13.516,0 -24.453,-6.336 -24.453,-14.168 0,-7.8242 10.937,-14.1797 24.453,-14.1797" /><path
         id="path20"
         style="fill:none;stroke:#000000;stroke-width:6;stroke-linecap:butt;stroke-linejoin:miter;stroke-miterlimit:4;stroke-dasharray:none;stroke-opacity:1"
         d="m 266.852,32.8125 90.996,0" /></g></g></svg>