<?xml version="1.0" encoding="UTF-8" standalone="no"?>
<svg
   xmlns:dc="http://purl.org/dc/elements/1.1/"
   xmlns:cc="http://creativecommons.org/ns#"
   xmlns:rdf="http://www.w3.org/1999/02/22-rdf-syntax-ns#"
   xmlns:svg="http://www.w3.org/2000/svg"
   xmlns="http://www.w3.org/2000/svg"
   viewBox="0 0 22.68 15.666667"
   height="15.666667"
   width="22.68"
   xml:space="preserve"
   id="svg2"
   version="1.1"><metadata
     id="metadata8"><rdf:RDF><cc:Work
         rdf:about=""><dc:format>image/svg+xml</dc:format><dc:type
           rdf:resource="http://purl.org/dc/dcmitype/StillImage" /></cc:Work></rdf:RDF></metadata><defs
     id="defs6" /><g
     transform="matrix(1.3333333,0,0,-1.3333333,0,15.666667)"
     id="g10"><g
       transform="scale(0.1)"
       id="g12"><path
         id="path14"
         style="fill:#000000;fill-opacity:1;fill-rule:nonzero;stroke:none"
         d="m 14.1797,94.7852 c 2.832,0 5.1367,2.3046 5.1367,5.1367 0,2.8321 -2.3047,5.1371 -5.1367,5.1371 -2.832,0 -5.13673,-2.305 -5.13673,-5.1371 0,-2.8321 2.30473,-5.1367 5.13673,-5.1367" /><path
         id="path16"
         style="fill:#000000;fill-opacity:1;fill-rule:nonzero;stroke:none"
         d="m 70.8711,94.7852 c 2.8398,0 5.1367,2.3046 5.1367,5.1367 0,2.8321 -2.2969,5.1371 -5.1367,5.1371 -2.8438,0 -5.1289,-2.305 -5.1289,-5.1371 0,-2.8321 2.2851,-5.1367 5.1289,-5.1367" /><path
         id="path18"
         style="fill:#000000;fill-opacity:1;fill-rule:nonzero;stroke:none"
         d="m 127.559,94.7852 c 2.832,0 5.136,2.3046 5.136,5.1367 0,2.8321 -2.304,5.1371 -5.136,5.1371 -2.832,0 -5.137,-2.305 -5.137,-5.1371 0,-2.8321 2.305,-5.1367 5.137,-5.1367" /><path
         id="path20"
         style="fill:#000000;fill-opacity:1;fill-rule:nonzero;stroke:none"
         d="m 155.898,66.4453 c 2.84,0 5.137,2.293 5.137,5.125 0,2.8438 -2.297,5.1406 -5.137,5.1406 -2.832,0 -5.136,-2.2968 -5.136,-5.1406 0,-2.832 2.304,-5.125 5.136,-5.125" /><path
         id="path22"
         style="fill:#000000;fill-opacity:1;fill-rule:nonzero;stroke:none"
         d="m 14.1797,38.0938 c 2.832,0 5.1367,2.2968 5.1367,5.1289 0,2.8398 -2.3047,5.1367 -5.1367,5.1367 -2.832,0 -5.13673,-2.2969 -5.13673,-5.1367 0,-2.8321 2.30473,-5.1289 5.13673,-5.1289" /><path
         id="path24"
         style="fill:#000000;fill-opacity:1;fill-rule:nonzero;stroke:none"
         d="m 70.8711,38.0938 c 2.8398,0 5.1367,2.2968 5.1367,5.1289 0,2.8398 -2.2969,5.1367 -5.1367,5.1367 -2.8438,0 -5.1289,-2.2969 -5.1289,-5.1367 0,-2.8321 2.2851,-5.1289 5.1289,-5.1289" /><path
         id="path26"
         style="fill:#000000;fill-opacity:1;fill-rule:nonzero;stroke:none"
         d="m 127.559,38.0938 c 2.832,0 5.136,2.2968 5.136,5.1289 0,2.8398 -2.304,5.1367 -5.136,5.1367 -2.832,0 -5.137,-2.2969 -5.137,-5.1367 0,-2.8321 2.305,-5.1289 5.137,-5.1289" /><path
         id="path28"
         style="fill:#000000;fill-opacity:1;fill-rule:nonzero;stroke:none"
         d="m 155.898,9.74609 c 2.84,0 5.137,2.30471 5.137,5.13671 0,2.832 -2.297,5.1367 -5.137,5.1367 -2.832,0 -5.136,-2.3047 -5.136,-5.1367 0,-2.832 2.304,-5.13671 5.136,-5.13671" /><path
         id="path30"
         style="fill:none;stroke:#000000;stroke-width:6;stroke-linecap:butt;stroke-linejoin:miter;stroke-miterlimit:4;stroke-dasharray:none;stroke-opacity:1"
         d="M 106.055,12.4805 H 28.8086" /><path
         id="path32"
         style="fill:none;stroke:#000000;stroke-width:6;stroke-linecap:butt;stroke-linejoin:miter;stroke-miterlimit:4;stroke-dasharray:none;stroke-opacity:1"
         d="M 107.305,73.3203 H 30.0586" /></g></g></svg>