<?xml version="1.0" encoding="UTF-8" standalone="no"?>
<svg
   xmlns:dc="http://purl.org/dc/elements/1.1/"
   xmlns:cc="http://creativecommons.org/ns#"
   xmlns:rdf="http://www.w3.org/1999/02/22-rdf-syntax-ns#"
   xmlns:svg="http://www.w3.org/2000/svg"
   xmlns="http://www.w3.org/2000/svg"
   viewBox="0 0 30.24 30.24"
   height="30.24"
   width="30.24"
   xml:space="preserve"
   id="svg2"
   version="1.1"><metadata
     id="metadata8"><rdf:RDF><cc:Work
         rdf:about=""><dc:format>image/svg+xml</dc:format><dc:type
           rdf:resource="http://purl.org/dc/dcmitype/StillImage" /></cc:Work></rdf:RDF></metadata><defs
     id="defs6" /><g
     transform="matrix(1.3333333,0,0,-1.3333333,0,30.24)"
     id="g10"><g
       transform="scale(0.1)"
       id="g12"><path
         id="path14"
         style="fill:#000000;fill-opacity:1;fill-rule:nonzero;stroke:none"
         d="m 18.3203,202.152 c 2.8399,0 5.1367,2.297 5.1367,5.129 0,2.84 -2.2968,5.137 -5.1367,5.137 -2.832,0 -5.1289,-2.297 -5.1289,-5.137 0,-2.832 2.2969,-5.129 5.1289,-5.129" /><path
         id="path16"
         style="fill:#000000;fill-opacity:1;fill-rule:nonzero;stroke:none"
         d="m 75.0195,202.152 c 2.8321,0 5.1368,2.297 5.1368,5.129 0,2.84 -2.3047,5.137 -5.1368,5.137 -2.8398,0 -5.1367,-2.297 -5.1367,-5.137 0,-2.832 2.2969,-5.129 5.1367,-5.129" /><path
         id="path18"
         style="fill:#000000;fill-opacity:1;fill-rule:nonzero;stroke:none"
         d="m 133.086,89.9258 c 2.832,0 5.129,2.3047 5.129,5.1367 0,2.832 -2.297,5.1365 -5.129,5.1365 -2.844,0 -5.137,-2.3045 -5.137,-5.1365 0,-2.832 2.293,-5.1367 5.137,-5.1367" /><path
         id="path20"
         style="fill:#000000;fill-opacity:1;fill-rule:nonzero;stroke:none"
         d="m 189.766,89.9258 c 2.832,0 5.136,2.3047 5.136,5.1367 0,2.832 -2.304,5.1365 -5.136,5.1365 -2.832,0 -5.137,-2.3045 -5.137,-5.1365 0,-2.832 2.305,-5.1367 5.137,-5.1367" /><path
         id="path22"
         style="fill:none;stroke:#000000;stroke-width:6;stroke-linecap:butt;stroke-linejoin:miter;stroke-miterlimit:4;stroke-dasharray:none;stroke-opacity:1"
         d="m 216.777,180.082 -0.015,46.68" /><path
         id="path24"
         style="fill:none;stroke:#000000;stroke-width:6;stroke-linecap:butt;stroke-linejoin:miter;stroke-miterlimit:4;stroke-dasharray:none;stroke-opacity:1"
         d="m 103.379,180.082 v 46.68" /><path
         id="path26"
         style="fill:none;stroke:#000000;stroke-width:6;stroke-linecap:butt;stroke-linejoin:miter;stroke-miterlimit:4;stroke-dasharray:none;stroke-opacity:1"
         d="m 216.777,66.6836 -0.019,56.6994" /><path
         id="path28"
         style="fill:none;stroke:#000000;stroke-width:6;stroke-linecap:butt;stroke-linejoin:miter;stroke-miterlimit:4;stroke-dasharray:none;stroke-opacity:1"
         d="M 103.379,66.6836 V 123.383" /><path
         id="path30"
         style="fill:none;stroke:#000000;stroke-width:6;stroke-linecap:butt;stroke-linejoin:miter;stroke-miterlimit:4;stroke-dasharray:none;stroke-opacity:1"
         d="m 160.078,123.402 v 56.68" /><path
         id="path32"
         style="fill:none;stroke:#000000;stroke-width:6;stroke-linecap:butt;stroke-linejoin:miter;stroke-miterlimit:4;stroke-dasharray:none;stroke-opacity:1"
         d="m 46.6797,123.402 v 56.68" /><path
         id="path34"
         style="fill:none;stroke:#000000;stroke-width:6;stroke-linecap:butt;stroke-linejoin:miter;stroke-miterlimit:4;stroke-dasharray:none;stroke-opacity:1"
         d="M 160.078,10.0039 V 66.6836" /><path
         id="path36"
         style="fill:none;stroke:#000000;stroke-width:6;stroke-linecap:butt;stroke-linejoin:miter;stroke-miterlimit:4;stroke-dasharray:none;stroke-opacity:1"
         d="M 46.6797,10.0039 V 66.6836" /><path
         id="path38"
         style="fill:none;stroke:#000000;stroke-width:6;stroke-linecap:butt;stroke-linejoin:miter;stroke-miterlimit:4;stroke-dasharray:none;stroke-opacity:1"
         d="M 216.77,0.00390625 216.758,10.0039" /><path
         id="path40"
         style="fill:none;stroke:#000000;stroke-width:6;stroke-linecap:butt;stroke-linejoin:miter;stroke-miterlimit:4;stroke-dasharray:none;stroke-opacity:1"
         d="M 103.379,0.00390625 V 10.0039" /><path
         id="path42"
         style="fill:none;stroke:#000000;stroke-width:6;stroke-linecap:butt;stroke-linejoin:miter;stroke-miterlimit:4;stroke-dasharray:none;stroke-opacity:1"
         d="M 0,180.082 H 226.777" /><path
         id="path44"
         style="fill:none;stroke:#000000;stroke-width:6;stroke-linecap:butt;stroke-linejoin:miter;stroke-miterlimit:4;stroke-dasharray:none;stroke-opacity:1"
         d="M 0,123.383 H 226.777" /><path
         id="path46"
         style="fill:none;stroke:#000000;stroke-width:6;stroke-linecap:butt;stroke-linejoin:miter;stroke-miterlimit:4;stroke-dasharray:none;stroke-opacity:1"
         d="M 0,66.6836 H 226.777" /><path
         id="path48"
         style="fill:none;stroke:#000000;stroke-width:6;stroke-linecap:butt;stroke-linejoin:miter;stroke-miterlimit:4;stroke-dasharray:none;stroke-opacity:1"
         d="M 0,10.0039 H 226.777" /></g></g></svg>