<?xml version="1.0" encoding="UTF-8" standalone="no"?>
<svg
   xmlns:dc="http://purl.org/dc/elements/1.1/"
   xmlns:cc="http://creativecommons.org/ns#"
   xmlns:rdf="http://www.w3.org/1999/02/22-rdf-syntax-ns#"
   xmlns:svg="http://www.w3.org/2000/svg"
   xmlns="http://www.w3.org/2000/svg"
   viewBox="0 0 45.360001 22.68"
   height="22.68"
   width="45.360001"
   xml:space="preserve"
   id="svg2"
   version="1.1"><metadata
     id="metadata8"><rdf:RDF><cc:Work
         rdf:about=""><dc:format>image/svg+xml</dc:format><dc:type
           rdf:resource="http://purl.org/dc/dcmitype/StillImage" /></cc:Work></rdf:RDF></metadata><defs
     id="defs6" /><g
     transform="matrix(1.3333333,0,0,-1.3333333,0,22.68)"
     id="g10"><g
       transform="scale(0.1)"
       id="g12"><path
         id="path14"
         style="fill:#000000;fill-opacity:1;fill-rule:nonzero;stroke:none"
         d="m 59.1992,133.867 h 19.7344 l 6.0937,18.75 6.0743,-18.75 h 19.7574 v 0 l -15.9567,-11.719 6.0937,-18.64 -15.9179,11.551 -16.0156,-11.551 6.1055,18.758 -15.9688,11.601" /><path
         id="path16"
         style="fill:none;stroke:#000000;stroke-width:3.5;stroke-linecap:butt;stroke-linejoin:miter;stroke-miterlimit:4;stroke-dasharray:none;stroke-opacity:1"
         d="m 59.1992,133.867 h 19.7344 l 6.0937,18.75 6.0743,-18.75 h 19.7574 v 0 l -15.9567,-11.719 6.0937,-18.64 -15.9179,11.551 -16.0156,-11.551 6.1055,18.758 z" /><path
         id="path18"
         style="fill:#000000;fill-opacity:1;fill-rule:nonzero;stroke:none"
         d="m 229.277,48.8281 h 19.739 l 6.089,18.7696 6.079,-18.7696 h 19.754 v 0 l -15.958,-11.7109 6.094,-18.6406 -15.918,11.5625 -16.015,-11.5625 6.105,18.7578 -15.969,11.5937" /><path
         id="path20"
         style="fill:none;stroke:#000000;stroke-width:3.5;stroke-linecap:butt;stroke-linejoin:miter;stroke-miterlimit:4;stroke-dasharray:none;stroke-opacity:1"
         d="m 229.277,48.8281 h 19.739 l 6.089,18.7696 6.079,-18.7696 h 19.754 v 0 l -15.958,-11.7109 6.094,-18.6406 -15.918,11.5625 -16.015,-11.5625 6.105,18.7578 z" /></g></g></svg>