<?xml version="1.0" encoding="UTF-8" standalone="no"?>
<svg
   xmlns:dc="http://purl.org/dc/elements/1.1/"
   xmlns:cc="http://creativecommons.org/ns#"
   xmlns:rdf="http://www.w3.org/1999/02/22-rdf-syntax-ns#"
   xmlns:svg="http://www.w3.org/2000/svg"
   xmlns="http://www.w3.org/2000/svg"
   viewBox="0 0 42.525002 21.262501"
   height="21.262501"
   width="42.525002"
   xml:space="preserve"
   version="1.1"
   id="svg2"><metadata
     id="metadata8"><rdf:RDF><cc:Work
         rdf:about=""><dc:format>image/svg+xml</dc:format><dc:type
           rdf:resource="http://purl.org/dc/dcmitype/StillImage" /></cc:Work></rdf:RDF></metadata><defs
     id="defs6" /><g
     transform="matrix(1.25,0,0,-1.25,0,21.2625)"
     id="g10"><g
       transform="scale(0.1,0.1)"
       id="g12"><path
         id="path14"
         style="fill:#000000;fill-opacity:1;fill-rule:nonzero;stroke:none"
         d="m 85.0391,79.8047 c 2.832,0 5.1367,2.3047 5.1367,5.1367 0,2.832 -2.3047,5.1367 -5.1367,5.1367 -2.8321,0 -5.1368,-2.3047 -5.1368,-5.1367 0,-2.832 2.3047,-5.1367 5.1368,-5.1367" /><path
         id="path16"
         style="fill:none;stroke:#000000;stroke-width:6;stroke-linecap:butt;stroke-linejoin:miter;stroke-miterlimit:4;stroke-dasharray:none;stroke-opacity:1"
         d="m 85.0391,67.2656 c 9.7656,0 17.6759,7.9102 17.6759,17.6758 0,9.7656 -7.9103,17.6756 -17.6759,17.6756 -9.7657,0 -17.6758,-7.91 -17.6758,-17.6756 0,-9.7656 7.9101,-17.6758 17.6758,-17.6758 z" /><path
         id="path18"
         style="fill:#000000;fill-opacity:1;fill-rule:nonzero;stroke:none"
         d="m 255.117,79.8047 c 2.832,0 5.137,2.3047 5.137,5.1367 0,2.832 -2.305,5.1367 -5.137,5.1367 -2.832,0 -5.137,-2.3047 -5.137,-5.1367 0,-2.832 2.305,-5.1367 5.137,-5.1367" /><path
         id="path20"
         style="fill:none;stroke:#000000;stroke-width:6;stroke-linecap:butt;stroke-linejoin:miter;stroke-miterlimit:4;stroke-dasharray:none;stroke-opacity:1"
         d="m 255.117,67.2656 c 9.766,0 17.676,7.9102 17.676,17.6758 0,9.7656 -7.91,17.6756 -17.676,17.6756 -9.765,0 -17.676,-7.91 -17.676,-17.6756 0,-9.7656 7.911,-17.6758 17.676,-17.6758 z" /></g></g></svg>