<?xml version="1.0" encoding="UTF-8" standalone="no"?>
<svg
   xmlns:dc="http://purl.org/dc/elements/1.1/"
   xmlns:cc="http://creativecommons.org/ns#"
   xmlns:rdf="http://www.w3.org/1999/02/22-rdf-syntax-ns#"
   xmlns:svg="http://www.w3.org/2000/svg"
   xmlns="http://www.w3.org/2000/svg"
   viewBox="0 0 35.253334 14.573333"
   height="14.573333"
   width="35.253334"
   xml:space="preserve"
   id="svg2"
   version="1.1"><metadata
     id="metadata8"><rdf:RDF><cc:Work
         rdf:about=""><dc:format>image/svg+xml</dc:format><dc:type
           rdf:resource="http://purl.org/dc/dcmitype/StillImage" /></cc:Work></rdf:RDF></metadata><defs
     id="defs6" /><g
     transform="matrix(1.3333333,0,0,-1.3333333,0,14.573333)"
     id="g10"><g
       transform="scale(0.1)"
       id="g12"><path
         id="path14"
         style="fill:#231f20;fill-opacity:1;fill-rule:nonzero;stroke:none"
         d="M 7.79688,3.83203 C 9.78516,4.67188 10.7148,6.97266 9.875,8.96094 9.02734,10.9453 6.73438,11.875 4.74609,11.0352 2.75781,10.1914 1.83203,7.89453 2.67188,5.90625 3.51563,3.92188 5.8125,2.98828 7.79688,3.83203" /><path
         id="path16"
         style="fill:#231f20;fill-opacity:1;fill-rule:nonzero;stroke:none"
         d="m 10.1602,43.9492 c 1.9921,0.8399 2.9179,3.1406 2.0742,5.1289 -0.8438,1.9844 -3.13284,2.9141 -5.12502,2.0742 C 5.12109,50.3086 4.19531,48.0117 5.03906,46.0234 5.87891,44.0391 8.17578,43.1055 10.1602,43.9492" /><path
         id="path18"
         style="fill:#231f20;fill-opacity:1;fill-rule:nonzero;stroke:none"
         d="m 42.1992,10.5508 c 1.9922,0.8398 2.9141,3.1406 2.0742,5.1289 -0.8398,1.9844 -3.1367,2.918 -5.1289,2.0742 -1.9882,-0.8437 -2.914,-3.1406 -2.0703,-5.1289 0.8399,-1.9844 3.1367,-2.91797 5.125,-2.0742" /><path
         id="path20"
         style="fill:#231f20;fill-opacity:1;fill-rule:nonzero;stroke:none"
         d="m 32.8828,56.9414 c 1.9883,0.8477 2.9141,3.1406 2.0742,5.1289 -0.8476,1.9883 -3.1367,2.918 -5.1289,2.0742 -1.9843,-0.8398 -2.9179,-3.1406 -2.0742,-5.125 0.8399,-1.9882 3.1406,-2.9218 5.1289,-2.0781" /><path
         id="path22"
         style="fill:#231f20;fill-opacity:1;fill-rule:nonzero;stroke:none"
         d="m 69.0508,23.5234 c 3.1055,1.3164 4.2851,5.5235 2.6445,9.4024 -1.6484,3.875 -5.4883,5.9609 -8.5937,4.6406 C 60,36.2539 50.0234,30.1953 51.668,26.3164 c 1.6406,-3.875 14.2851,-4.1055 17.3828,-2.793" /><path
         id="path24"
         style="fill:#231f20;fill-opacity:1;fill-rule:nonzero;stroke:none"
         d="m 16.7734,91.5 c 1.7344,0 3.1289,1.3984 3.1289,3.1289 0,1.7266 -1.3945,3.1289 -3.1289,3.1289 -1.7265,0 -3.125,-1.4023 -3.125,-3.1289 0,-1.7305 1.3985,-3.1289 3.125,-3.1289" /><path
         id="path26"
         style="fill:#231f20;fill-opacity:1;fill-rule:nonzero;stroke:none"
         d="m 12.8438,67.7969 c 1.7304,0 3.1289,1.4023 3.1289,3.1289 0,1.7305 -1.3985,3.1328 -3.1289,3.1328 -1.7266,0 -3.12505,-1.4023 -3.12505,-3.1328 0,-1.7266 1.39845,-3.1289 3.12505,-3.1289" /><path
         id="path28"
         style="fill:#231f20;fill-opacity:1;fill-rule:nonzero;stroke:none"
         d="m 61.4648,58.3672 c 1.9922,0.8476 2.9141,3.1406 2.0743,5.1289 -0.8438,1.9883 -3.1328,2.918 -5.125,2.0742 -1.9883,-0.8398 -2.9219,-3.1406 -2.0743,-5.125 0.836,-1.9883 3.1368,-2.918 5.125,-2.0781" /><path
         id="path30"
         style="fill:#231f20;fill-opacity:1;fill-rule:nonzero;stroke:none"
         d="m 40.8477,37.9648 c 1.9961,0.8438 2.9218,3.1368 2.0781,5.125 -0.8399,1.9883 -3.1367,2.9219 -5.1289,2.0743 -1.9883,-0.8438 -2.9102,-3.1368 -2.0703,-5.125 0.8398,-1.9883 3.1367,-2.9219 5.1211,-2.0743" /><path
         id="path32"
         style="fill:#231f20;fill-opacity:1;fill-rule:nonzero;stroke:none"
         d="m 69.707,80.3906 c 1.9922,0.8438 2.9219,3.1407 2.0743,5.125 -0.8399,1.9883 -3.1329,2.9219 -5.125,2.0782 -1.9883,-0.8399 -2.9102,-3.1407 -2.0704,-5.129 0.8399,-1.9882 3.1329,-2.914 5.1211,-2.0742" /><path
         id="path34"
         style="fill:#231f20;fill-opacity:1;fill-rule:nonzero;stroke:none"
         d="m 57.0586,98.6953 c 1.9922,0.8438 2.9219,3.1407 2.0781,5.1287 -0.8398,1.985 -3.1367,2.918 -5.1289,2.074 -1.9844,-0.843 -2.9101,-3.14 -2.0703,-5.128 0.8438,-1.9848 3.1367,-2.9184 5.1211,-2.0747" /><path
         id="path36"
         style="fill:#231f20;fill-opacity:1;fill-rule:nonzero;stroke:none"
         d="m 40.6289,71.9766 c 3.1016,1.3125 13.3008,7.3164 11.6563,11.1914 -1.6407,3.8789 -14.5079,4.1718 -17.6094,2.8554 -3.1016,-1.3164 -4.2852,-5.5273 -2.6406,-9.3984 1.6406,-3.8828 5.4882,-5.9609 8.5937,-4.6484" /><path
         id="path38"
         style="fill:#231f20;fill-opacity:1;fill-rule:nonzero;stroke:none"
         d="m 24.2773,26.2305 c 1.7227,0.0547 3.086,1.5 3.0313,3.2265 -0.0508,1.7227 -1.5,3.0821 -3.2227,3.0313 C 22.3594,32.4297 21,30.9922 21.0547,29.2617 c 0.0547,-1.7265 1.5,-3.0859 3.2226,-3.0312" /><path
         id="path40"
         style="fill:#231f20;fill-opacity:1;fill-rule:nonzero;stroke:none"
         d="m 88.7344,3.83203 c 1.9883,0.83985 2.9179,3.14063 2.0742,5.12891 -0.8438,1.98436 -3.1367,2.91406 -5.125,2.07426 -1.9883,-0.8438 -2.9141,-3.14067 -2.0742,-5.12895 0.8437,-1.98437 3.1367,-2.91797 5.125,-2.07422" /><path
         id="path42"
         style="fill:#231f20;fill-opacity:1;fill-rule:nonzero;stroke:none"
         d="m 91.0977,43.9492 c 1.9921,0.8399 2.9179,3.1406 2.0742,5.1289 -0.8438,1.9844 -3.1328,2.9141 -5.125,2.0742 -1.9883,-0.8437 -2.9141,-3.1406 -2.0703,-5.1289 0.8398,-1.9843 3.1328,-2.9179 5.1211,-2.0742" /><path
         id="path44"
         style="fill:#231f20;fill-opacity:1;fill-rule:nonzero;stroke:none"
         d="m 123.137,10.5508 c 1.992,0.8398 2.914,3.1406 2.074,5.1289 -0.84,1.9844 -3.137,2.918 -5.129,2.0742 -1.984,-0.8437 -2.914,-3.1406 -2.07,-5.1289 0.84,-1.9844 3.136,-2.91797 5.125,-2.0742" /><path
         id="path46"
         style="fill:#231f20;fill-opacity:1;fill-rule:nonzero;stroke:none"
         d="m 113.816,56.9414 c 1.997,0.8477 2.918,3.1406 2.079,5.1289 -0.844,1.9883 -3.137,2.918 -5.129,2.0742 -1.989,-0.8398 -2.918,-3.1406 -2.075,-5.125 0.84,-1.9882 3.141,-2.9218 5.125,-2.0781" /><path
         id="path48"
         style="fill:#231f20;fill-opacity:1;fill-rule:nonzero;stroke:none"
         d="m 149.988,23.5234 c 3.11,1.3164 4.285,5.5235 2.645,9.4024 -1.649,3.875 -5.488,5.9609 -8.594,4.6406 -3.101,-1.3125 -13.078,-7.3711 -11.434,-11.25 1.641,-3.875 14.286,-4.1055 17.383,-2.793" /><path
         id="path50"
         style="fill:#231f20;fill-opacity:1;fill-rule:nonzero;stroke:none"
         d="m 97.7109,91.5 c 1.7344,0 3.1291,1.3984 3.1291,3.1289 0,1.7266 -1.3947,3.1289 -3.1291,3.1289 -1.7265,0 -3.125,-1.4023 -3.125,-3.1289 0,-1.7305 1.3985,-3.1289 3.125,-3.1289" /><path
         id="path52"
         style="fill:#231f20;fill-opacity:1;fill-rule:nonzero;stroke:none"
         d="m 93.7813,67.7969 c 1.7304,0 3.1289,1.4023 3.1289,3.1289 0,1.7305 -1.3985,3.1328 -3.1289,3.1328 -1.7266,0 -3.125,-1.4023 -3.125,-3.1328 0,-1.7266 1.3984,-3.1289 3.125,-3.1289" /><path
         id="path54"
         style="fill:#231f20;fill-opacity:1;fill-rule:nonzero;stroke:none"
         d="m 142.402,58.3672 c 1.993,0.8476 2.914,3.1406 2.075,5.1289 -0.844,1.9883 -3.133,2.918 -5.125,2.0742 -1.989,-0.8398 -2.922,-3.1406 -2.079,-5.125 0.84,-1.9883 3.141,-2.918 5.129,-2.0781" /><path
         id="path56"
         style="fill:#231f20;fill-opacity:1;fill-rule:nonzero;stroke:none"
         d="m 121.785,37.9648 c 1.992,0.8438 2.922,3.1368 2.078,5.125 -0.84,1.9883 -3.136,2.9219 -5.129,2.0743 -1.988,-0.8438 -2.91,-3.1368 -2.07,-5.125 0.84,-1.9883 3.137,-2.9219 5.121,-2.0743" /><path
         id="path58"
         style="fill:#231f20;fill-opacity:1;fill-rule:nonzero;stroke:none"
         d="m 150.645,80.3906 c 1.992,0.8438 2.918,3.1407 2.074,5.125 -0.84,1.9883 -3.133,2.9219 -5.125,2.0782 -1.989,-0.8399 -2.91,-3.1407 -2.071,-5.129 0.84,-1.9882 3.133,-2.914 5.122,-2.0742" /><path
         id="path60"
         style="fill:#231f20;fill-opacity:1;fill-rule:nonzero;stroke:none"
         d="m 137.996,98.6953 c 1.992,0.8438 2.922,3.1407 2.078,5.1287 -0.84,1.985 -3.136,2.918 -5.129,2.074 -1.984,-0.843 -2.91,-3.14 -2.07,-5.128 0.848,-1.9848 3.137,-2.9184 5.121,-2.0747" /><path
         id="path62"
         style="fill:#231f20;fill-opacity:1;fill-rule:nonzero;stroke:none"
         d="m 121.566,71.9766 c 3.102,1.3125 13.301,7.3164 11.657,11.1914 -1.641,3.8789 -14.508,4.1718 -17.61,2.8554 -3.101,-1.3164 -4.285,-5.5273 -2.64,-9.3984 1.64,-3.8828 5.488,-5.9609 8.593,-4.6484" /><path
         id="path64"
         style="fill:#231f20;fill-opacity:1;fill-rule:nonzero;stroke:none"
         d="m 105.215,26.2305 c 1.723,0.0547 3.086,1.5 3.031,3.2265 -0.055,1.7227 -1.5,3.0821 -3.223,3.0313 -1.726,-0.0586 -3.085,-1.4961 -3.031,-3.2266 0.055,-1.7265 1.5,-3.0859 3.223,-3.0312" /><path
         id="path66"
         style="fill:none;stroke:#231f20;stroke-width:2.5;stroke-linecap:butt;stroke-linejoin:miter;stroke-miterlimit:4;stroke-dasharray:none;stroke-opacity:1"
         d="M 0,1.25 H 264.41" /><path
         id="path68"
         style="fill:none;stroke:#231f20;stroke-width:2.5;stroke-linecap:butt;stroke-linejoin:miter;stroke-miterlimit:4;stroke-dasharray:none;stroke-opacity:1"
         d="M 80.6289,109.273 V 1.25" /><path
         id="path70"
         style="fill:none;stroke:#231f20;stroke-width:2.5;stroke-linecap:butt;stroke-linejoin:miter;stroke-miterlimit:4;stroke-dasharray:none;stroke-opacity:1"
         d="M 161.531,109.273 V 1.25" /><path
         id="path72"
         style="fill:#231f20;fill-opacity:1;fill-rule:nonzero;stroke:none"
         d="m 169.691,3.83203 c 1.989,0.83985 2.914,3.14063 2.079,5.12891 -0.848,1.98436 -3.141,2.91406 -5.129,2.07426 -1.989,-0.8438 -2.914,-3.14067 -2.075,-5.12895 0.844,-1.98437 3.137,-2.91797 5.125,-2.07422" /><path
         id="path74"
         style="fill:#231f20;fill-opacity:1;fill-rule:nonzero;stroke:none"
         d="m 172.055,43.9492 c 1.992,0.8399 2.918,3.1406 2.078,5.1289 -0.848,1.9844 -3.137,2.9141 -5.129,2.0742 -1.988,-0.8437 -2.914,-3.1406 -2.07,-5.1289 0.839,-1.9843 3.132,-2.9179 5.121,-2.0742" /><path
         id="path76"
         style="fill:#231f20;fill-opacity:1;fill-rule:nonzero;stroke:none"
         d="m 204.094,10.5508 c 1.992,0.8398 2.914,3.1406 2.074,5.1289 -0.84,1.9844 -3.137,2.918 -5.129,2.0742 -1.984,-0.8437 -2.914,-3.1406 -2.07,-5.1289 0.84,-1.9844 3.136,-2.91797 5.125,-2.0742" /><path
         id="path78"
         style="fill:#231f20;fill-opacity:1;fill-rule:nonzero;stroke:none"
         d="m 194.773,56.9414 c 1.997,0.8477 2.918,3.1406 2.079,5.1289 -0.844,1.9883 -3.137,2.918 -5.129,2.0742 -1.989,-0.8398 -2.918,-3.1406 -2.075,-5.125 0.84,-1.9882 3.141,-2.9218 5.125,-2.0781" /><path
         id="path80"
         style="fill:#231f20;fill-opacity:1;fill-rule:nonzero;stroke:none"
         d="m 230.945,23.5234 c 3.11,1.3164 4.285,5.5235 2.645,9.4024 -1.649,3.875 -5.488,5.9609 -8.594,4.6406 -3.101,-1.3125 -13.078,-7.3711 -11.433,-11.25 1.64,-3.875 14.285,-4.1055 17.382,-2.793" /><path
         id="path82"
         style="fill:#231f20;fill-opacity:1;fill-rule:nonzero;stroke:none"
         d="m 178.668,91.5 c 1.73,0 3.129,1.3984 3.129,3.1289 0,1.7266 -1.399,3.1289 -3.129,3.1289 -1.727,0 -3.125,-1.4023 -3.125,-3.1289 0,-1.7305 1.398,-3.1289 3.125,-3.1289" /><path
         id="path84"
         style="fill:#231f20;fill-opacity:1;fill-rule:nonzero;stroke:none"
         d="m 174.734,67.7969 c 1.735,0 3.133,1.4023 3.133,3.1289 0,1.7305 -1.398,3.1328 -3.133,3.1328 -1.722,0 -3.125,-1.4023 -3.125,-3.1328 0,-1.7266 1.403,-3.1289 3.125,-3.1289" /><path
         id="path86"
         style="fill:#231f20;fill-opacity:1;fill-rule:nonzero;stroke:none"
         d="m 250.449,3.83203 c 1.989,0.83985 2.914,3.14063 2.074,5.12891 -0.843,1.98436 -3.136,2.91406 -5.125,2.07426 -1.988,-0.8438 -2.918,-3.14067 -2.078,-5.12895 0.848,-1.98437 3.141,-2.91797 5.129,-2.07422" /><path
         id="path88"
         style="fill:#231f20;fill-opacity:1;fill-rule:nonzero;stroke:none"
         d="m 252.813,43.9492 c 1.992,0.8399 2.914,3.1406 2.074,5.1289 -0.844,1.9844 -3.133,2.9141 -5.125,2.0742 -1.989,-0.8437 -2.914,-3.1406 -2.071,-5.1289 0.84,-1.9843 3.133,-2.9179 5.122,-2.0742" /><path
         id="path90"
         style="fill:#231f20;fill-opacity:1;fill-rule:nonzero;stroke:none"
         d="m 259.426,91.5 c 1.73,0 3.129,1.3984 3.129,3.1289 0,1.7266 -1.399,3.1289 -3.129,3.1289 -1.727,0 -3.125,-1.4023 -3.125,-3.1289 0,-1.7305 1.398,-3.1289 3.125,-3.1289" /><path
         id="path92"
         style="fill:#231f20;fill-opacity:1;fill-rule:nonzero;stroke:none"
         d="m 255.492,67.7969 c 1.735,0 3.129,1.4023 3.129,3.1289 0,1.7305 -1.394,3.1328 -3.129,3.1328 -1.722,0 -3.125,-1.4023 -3.125,-3.1328 0,-1.7266 1.403,-3.1289 3.125,-3.1289" /><path
         id="path94"
         style="fill:#231f20;fill-opacity:1;fill-rule:nonzero;stroke:none"
         d="m 223.359,58.3672 c 1.993,0.8476 2.914,3.1406 2.075,5.1289 -0.844,1.9883 -3.133,2.918 -5.125,2.0742 -1.989,-0.8398 -2.922,-3.1406 -2.079,-5.125 0.84,-1.9883 3.141,-2.918 5.129,-2.0781" /><path
         id="path96"
         style="fill:#231f20;fill-opacity:1;fill-rule:nonzero;stroke:none"
         d="m 202.742,37.9648 c 1.992,0.8438 2.922,3.1368 2.078,5.125 -0.84,1.9883 -3.136,2.9219 -5.129,2.0743 -1.988,-0.8438 -2.91,-3.1368 -2.07,-5.125 0.84,-1.9883 3.137,-2.9219 5.121,-2.0743" /><path
         id="path98"
         style="fill:#231f20;fill-opacity:1;fill-rule:nonzero;stroke:none"
         d="m 231.602,80.3906 c 1.992,0.8438 2.918,3.1407 2.074,5.125 -0.84,1.9883 -3.133,2.9219 -5.125,2.0782 -1.988,-0.8399 -2.91,-3.1407 -2.071,-5.129 0.84,-1.9882 3.133,-2.914 5.122,-2.0742" /><path
         id="path100"
         style="fill:#231f20;fill-opacity:1;fill-rule:nonzero;stroke:none"
         d="m 218.953,98.6953 c 1.992,0.8438 2.922,3.1407 2.078,5.1287 -0.84,1.985 -3.136,2.918 -5.129,2.074 -1.988,-0.843 -2.91,-3.14 -2.07,-5.128 0.848,-1.9848 3.137,-2.9184 5.121,-2.0747" /><path
         id="path102"
         style="fill:#231f20;fill-opacity:1;fill-rule:nonzero;stroke:none"
         d="m 202.523,71.9766 c 3.102,1.3125 13.301,7.3164 11.657,11.1914 -1.641,3.8789 -14.508,4.1718 -17.61,2.8554 -3.101,-1.3164 -4.285,-5.5273 -2.64,-9.3984 1.64,-3.8828 5.488,-5.9609 8.593,-4.6484" /><path
         id="path104"
         style="fill:#231f20;fill-opacity:1;fill-rule:nonzero;stroke:none"
         d="m 186.172,26.2305 c 1.723,0.0547 3.086,1.5 3.031,3.2265 -0.055,1.7227 -1.5,3.0821 -3.223,3.0313 -1.726,-0.0586 -3.085,-1.4961 -3.031,-3.2266 0.055,-1.7265 1.5,-3.0859 3.223,-3.0312" /><path
         id="path106"
         style="fill:none;stroke:#231f20;stroke-width:2.5;stroke-linecap:butt;stroke-linejoin:miter;stroke-miterlimit:4;stroke-dasharray:none;stroke-opacity:1"
         d="M 242.488,109.273 V 1.25" /></g></g></svg>