<?xml version="1.0" encoding="UTF-8" standalone="no"?>
<svg
   xmlns:dc="http://purl.org/dc/elements/1.1/"
   xmlns:cc="http://creativecommons.org/ns#"
   xmlns:rdf="http://www.w3.org/1999/02/22-rdf-syntax-ns#"
   xmlns:svg="http://www.w3.org/2000/svg"
   xmlns="http://www.w3.org/2000/svg"
   viewBox="0 0 56.026669 30.4"
   height="30.4"
   width="56.026669"
   xml:space="preserve"
   id="svg2"
   version="1.1"><metadata
     id="metadata8"><rdf:RDF><cc:Work
         rdf:about=""><dc:format>image/svg+xml</dc:format><dc:type
           rdf:resource="http://purl.org/dc/dcmitype/StillImage" /></cc:Work></rdf:RDF></metadata><defs
     id="defs6" /><g
     transform="matrix(1.3333333,0,0,-1.3333333,0,30.4)"
     id="g10"><g
       transform="scale(0.1)"
       id="g12"><path
         id="path14"
         style="fill:none;stroke:#000000;stroke-width:6;stroke-linecap:butt;stroke-linejoin:miter;stroke-miterlimit:4;stroke-dasharray:none;stroke-opacity:1"
         d="M 97.4219,206.621 20.1758,206.609" /><path
         id="path16"
         style="fill:none;stroke:#000000;stroke-width:6;stroke-linecap:butt;stroke-linejoin:miter;stroke-miterlimit:4;stroke-dasharray:none;stroke-opacity:1"
         d="m 59.0039,206.621 0.0117,-27.09" /><path
         id="path18"
         style="fill:none;stroke:#000000;stroke-width:6;stroke-linecap:butt;stroke-linejoin:miter;stroke-miterlimit:4;stroke-dasharray:none;stroke-opacity:1"
         d="M 300.891,93.0859 H 223.645" /><path
         id="path20"
         style="fill:none;stroke:#000000;stroke-width:6;stroke-linecap:butt;stroke-linejoin:miter;stroke-miterlimit:4;stroke-dasharray:none;stroke-opacity:1"
         d="M 262.48,93.0859 V 66.0039" /><path
         id="path22"
         style="fill:#000000;fill-opacity:1;fill-rule:nonzero;stroke:none"
         d="m 133.801,194.336 c 2.832,0 5.137,2.305 5.137,5.137 0,2.832 -2.305,5.136 -5.137,5.136 -2.832,0 -5.137,-2.304 -5.137,-5.136 0,-2.852 2.305,-5.137 5.137,-5.137" /><path
         id="path24"
         style="fill:#000000;fill-opacity:1;fill-rule:nonzero;stroke:none"
         d="m 388.137,194.336 c 2.832,0 5.136,2.305 5.136,5.137 0,2.832 -2.304,5.136 -5.136,5.136 -2.832,0 -5.137,-2.304 -5.137,-5.136 0,-2.852 2.305,-5.137 5.137,-5.137" /><path
         id="path26"
         style="fill:#000000;fill-opacity:1;fill-rule:nonzero;stroke:none"
         d="m 184.668,194.336 c 2.832,0 5.137,2.305 5.137,5.137 0,2.832 -2.305,5.136 -5.137,5.136 -2.832,0 -5.137,-2.304 -5.137,-5.136 0,-2.852 2.305,-5.137 5.137,-5.137" /><path
         id="path28"
         style="fill:#000000;fill-opacity:1;fill-rule:nonzero;stroke:none"
         d="m 235.539,194.336 c 2.832,0 5.137,2.305 5.137,5.137 0,2.832 -2.305,5.136 -5.137,5.136 -2.832,0 -5.137,-2.304 -5.137,-5.136 0,-2.852 2.305,-5.137 5.137,-5.137" /><path
         id="path30"
         style="fill:#000000;fill-opacity:1;fill-rule:nonzero;stroke:none"
         d="m 286.406,194.336 c 2.832,0 5.137,2.305 5.137,5.137 0,2.832 -2.305,5.136 -5.137,5.136 -2.832,0 -5.136,-2.304 -5.136,-5.136 0,-2.852 2.304,-5.137 5.136,-5.137" /><path
         id="path32"
         style="fill:#000000;fill-opacity:1;fill-rule:nonzero;stroke:none"
         d="m 337.266,194.336 c 2.832,0 5.136,2.305 5.136,5.137 0,2.832 -2.304,5.136 -5.136,5.136 -2.832,0 -5.137,-2.304 -5.137,-5.136 0,-2.852 2.305,-5.137 5.137,-5.137" /><path
         id="path34"
         style="fill:#000000;fill-opacity:1;fill-rule:nonzero;stroke:none"
         d="m 8.14453,137.344 c 2.83207,0 5.13677,2.304 5.13677,5.136 0,2.833 -2.3047,5.137 -5.13677,5.137 -2.83203,0 -5.13672,-2.304 -5.13672,-5.137 0,-2.851 2.30469,-5.136 5.13672,-5.136" /><path
         id="path36"
         style="fill:#000000;fill-opacity:1;fill-rule:nonzero;stroke:none"
         d="m 59.0156,137.344 c 2.8321,0 5.1367,2.304 5.1367,5.136 0,2.833 -2.3046,5.137 -5.1367,5.137 -2.832,0 -5.1367,-2.304 -5.1367,-5.137 0,-2.851 2.3047,-5.136 5.1367,-5.136" /><path
         id="path38"
         style="fill:#000000;fill-opacity:1;fill-rule:nonzero;stroke:none"
         d="m 109.883,137.344 c 2.832,0 5.137,2.304 5.137,5.136 0,2.833 -2.305,5.137 -5.137,5.137 -2.832,0 -5.137,-2.304 -5.137,-5.137 0,-2.851 2.305,-5.136 5.137,-5.136" /><path
         id="path40"
         style="fill:#000000;fill-opacity:1;fill-rule:nonzero;stroke:none"
         d="m 160.754,137.344 c 2.832,0 5.137,2.304 5.137,5.136 0,2.833 -2.305,5.137 -5.137,5.137 -2.832,0 -5.137,-2.304 -5.137,-5.137 0,-2.851 2.305,-5.136 5.137,-5.136" /><path
         id="path42"
         style="fill:#000000;fill-opacity:1;fill-rule:nonzero;stroke:none"
         d="m 211.613,137.344 c 2.832,0 5.137,2.304 5.137,5.136 0,2.833 -2.305,5.137 -5.137,5.137 -2.832,0 -5.136,-2.304 -5.136,-5.137 0,-2.851 2.304,-5.136 5.136,-5.136" /><path
         id="path44"
         style="fill:#000000;fill-opacity:1;fill-rule:nonzero;stroke:none"
         d="m 262.48,137.344 c 2.833,0 5.137,2.304 5.137,5.136 0,2.833 -2.304,5.137 -5.137,5.137 -2.832,0 -5.136,-2.304 -5.136,-5.137 0,-2.851 2.304,-5.136 5.136,-5.136" /><path
         id="path46"
         style="fill:#000000;fill-opacity:1;fill-rule:nonzero;stroke:none"
         d="m 313.352,137.344 c 2.832,0 5.136,2.304 5.136,5.136 0,2.833 -2.304,5.137 -5.136,5.137 -2.832,0 -5.137,-2.304 -5.137,-5.137 0,-2.851 2.305,-5.136 5.137,-5.136" /><path
         id="path48"
         style="fill:#000000;fill-opacity:1;fill-rule:nonzero;stroke:none"
         d="m 364.219,137.344 c 2.832,0 5.136,2.304 5.136,5.136 0,2.833 -2.304,5.137 -5.136,5.137 -2.832,0 -5.137,-2.304 -5.137,-5.137 0,-2.851 2.305,-5.136 5.137,-5.136" /><path
         id="path50"
         style="fill:#000000;fill-opacity:1;fill-rule:nonzero;stroke:none"
         d="m 160.754,23.3594 c 2.832,0 5.137,2.3047 5.137,5.1367 0,2.832 -2.305,5.1367 -5.137,5.1367 -2.832,0 -5.137,-2.3047 -5.137,-5.1367 0,-2.8516 2.305,-5.1367 5.137,-5.1367" /><path
         id="path52"
         style="fill:#000000;fill-opacity:1;fill-rule:nonzero;stroke:none"
         d="m 262.48,23.3594 c 2.833,0 5.137,2.3047 5.137,5.1367 0,2.832 -2.304,5.1367 -5.137,5.1367 -2.832,0 -5.136,-2.3047 -5.136,-5.1367 0,-2.8516 2.304,-5.1367 5.136,-5.1367" /><path
         id="path54"
         style="fill:#000000;fill-opacity:1;fill-rule:nonzero;stroke:none"
         d="m 364.219,23.3594 c 2.832,0 5.136,2.3047 5.136,5.1367 0,2.832 -2.304,5.1367 -5.136,5.1367 -2.832,0 -5.137,-2.3047 -5.137,-5.1367 0,-2.8516 2.305,-5.1367 5.137,-5.1367" /><path
         id="path56"
         style="fill:#000000;fill-opacity:1;fill-rule:nonzero;stroke:none"
         d="m 184.668,80.3516 c 2.832,0 5.137,2.3047 5.137,5.1367 0,2.832 -2.305,5.1367 -5.137,5.1367 -2.832,0 -5.137,-2.3047 -5.137,-5.1367 0,-2.8516 2.305,-5.1367 5.137,-5.1367" /><path
         id="path58"
         style="fill:#000000;fill-opacity:1;fill-rule:nonzero;stroke:none"
         d="m 211.613,23.3594 c 2.832,0 5.137,2.3047 5.137,5.1367 0,2.832 -2.305,5.1367 -5.137,5.1367 -2.832,0 -5.136,-2.3047 -5.136,-5.1367 0,-2.8516 2.304,-5.1367 5.136,-5.1367" /><path
         id="path60"
         style="fill:#000000;fill-opacity:1;fill-rule:nonzero;stroke:none"
         d="m 133.809,80.3516 c 2.832,0 5.136,2.3047 5.136,5.1367 0,2.832 -2.304,5.1367 -5.136,5.1367 -2.832,0 -5.137,-2.3047 -5.137,-5.1367 0,-2.8516 2.305,-5.1367 5.137,-5.1367" /><path
         id="path62"
         style="fill:#000000;fill-opacity:1;fill-rule:nonzero;stroke:none"
         d="m 82.9492,80.3516 c 2.8321,0 5.1367,2.3047 5.1367,5.1367 0,2.832 -2.3046,5.1367 -5.1367,5.1367 -2.832,0 -5.1367,-2.3047 -5.1367,-5.1367 0,-2.8516 2.3047,-5.1367 5.1367,-5.1367" /><path
         id="path64"
         style="fill:#000000;fill-opacity:1;fill-rule:nonzero;stroke:none"
         d="m 109.895,23.3594 c 2.832,0 5.136,2.3047 5.136,5.1367 0,2.832 -2.304,5.1367 -5.136,5.1367 -2.832,0 -5.137,-2.3047 -5.137,-5.1367 0,-2.8516 2.305,-5.1367 5.137,-5.1367" /><path
         id="path66"
         style="fill:#000000;fill-opacity:1;fill-rule:nonzero;stroke:none"
         d="m 32.0898,80.3516 c 2.8321,0 5.1368,2.3047 5.1368,5.1367 0,2.832 -2.3047,5.1367 -5.1368,5.1367 -2.832,0 -5.1367,-2.3047 -5.1367,-5.1367 0,-2.8516 2.3047,-5.1367 5.1367,-5.1367" /><path
         id="path68"
         style="fill:#000000;fill-opacity:1;fill-rule:nonzero;stroke:none"
         d="m 59.0352,23.3594 c 2.832,0 5.1367,2.3047 5.1367,5.1367 0,2.832 -2.3047,5.1367 -5.1367,5.1367 -2.8321,0 -5.1368,-2.3047 -5.1368,-5.1367 0,-2.8516 2.3047,-5.1367 5.1368,-5.1367" /><path
         id="path70"
         style="fill:#000000;fill-opacity:1;fill-rule:nonzero;stroke:none"
         d="m 8.17578,23.3594 c 2.83202,0 5.13672,2.3047 5.13672,5.1367 0,2.832 -2.3047,5.1367 -5.13672,5.1367 -2.83203,0 -5.13672,-2.3047 -5.13672,-5.1367 0,-2.8516 2.30469,-5.1367 5.13672,-5.1367" /><path
         id="path72"
         style="fill:#000000;fill-opacity:1;fill-rule:nonzero;stroke:none"
         d="m 313.352,23.3594 c 2.832,0 5.136,2.3047 5.136,5.1367 0,2.832 -2.304,5.1367 -5.136,5.1367 -2.832,0 -5.137,-2.3047 -5.137,-5.1367 0,-2.8516 2.305,-5.1367 5.137,-5.1367" /><path
         id="path74"
         style="fill:#000000;fill-opacity:1;fill-rule:nonzero;stroke:none"
         d="m 337.266,80.3516 c 2.832,0 5.136,2.3047 5.136,5.1367 0,2.832 -2.304,5.1367 -5.136,5.1367 -2.832,0 -5.137,-2.3047 -5.137,-5.1367 0,-2.8516 2.305,-5.1367 5.137,-5.1367" /><path
         id="path76"
         style="fill:#000000;fill-opacity:1;fill-rule:nonzero;stroke:none"
         d="m 388.137,80.3516 c 2.832,0 5.136,2.3047 5.136,5.1367 0,2.832 -2.304,5.1367 -5.136,5.1367 -2.832,0 -5.137,-2.3047 -5.137,-5.1367 0,-2.8516 2.305,-5.1367 5.137,-5.1367" /></g></g></svg>