<?xml version="1.0" encoding="UTF-8" standalone="no"?>
<svg
   xmlns:dc="http://purl.org/dc/elements/1.1/"
   xmlns:cc="http://creativecommons.org/ns#"
   xmlns:rdf="http://www.w3.org/1999/02/22-rdf-syntax-ns#"
   xmlns:svg="http://www.w3.org/2000/svg"
   xmlns="http://www.w3.org/2000/svg"
   viewBox="0 0 15.306667 14.106667"
   height="14.106667"
   width="15.306667"
   xml:space="preserve"
   id="svg2"
   version="1.1"><metadata
     id="metadata8"><rdf:RDF><cc:Work
         rdf:about=""><dc:format>image/svg+xml</dc:format><dc:type
           rdf:resource="http://purl.org/dc/dcmitype/StillImage" /></cc:Work></rdf:RDF></metadata><defs
     id="defs6" /><g
     transform="matrix(1.3333333,0,0,-1.3333333,0,14.106667)"
     id="g10"><g
       transform="scale(0.1)"
       id="g12"><path
         id="path14"
         style="fill:#000000;fill-opacity:1;fill-rule:nonzero;stroke:none"
         d="m 81.1367,79.6797 c 2.8399,0 5.1367,2.2969 5.1367,5.1289 0,2.8398 -2.2968,5.1367 -5.1367,5.1367 -2.8359,0 -5.1289,-2.2969 -5.1289,-5.1367 0,-2.832 2.293,-5.1289 5.1289,-5.1289" /><path
         id="path16"
         style="fill:#000000;fill-opacity:1;fill-rule:nonzero;stroke:none"
         d="m 24.4531,22.9883 c 2.836,0 5.1328,2.3008 5.1328,5.1328 0,2.8359 -2.3007,5.1367 -5.1328,5.1367 -2.8359,0 -5.1367,-2.3008 -5.1367,-5.1367 0,-2.832 2.3008,-5.1328 5.1367,-5.1328" /><path
         id="path18"
         style="fill:none;stroke:#000000;stroke-width:3;stroke-linecap:butt;stroke-linejoin:miter;stroke-miterlimit:4;stroke-dasharray:none;stroke-opacity:1"
         d="m 11.293,71.9492 v 0 l 28.3476,28.3398" /><path
         id="path20"
         style="fill:none;stroke:#000000;stroke-width:3;stroke-linecap:butt;stroke-linejoin:miter;stroke-miterlimit:4;stroke-dasharray:none;stroke-opacity:1"
         d="m 66.3242,43.4141 v 0 L 94.668,15.0742" /></g></g></svg>