<?xml version="1.0" encoding="UTF-8" standalone="no"?>
<svg
   xmlns:dc="http://purl.org/dc/elements/1.1/"
   xmlns:cc="http://creativecommons.org/ns#"
   xmlns:rdf="http://www.w3.org/1999/02/22-rdf-syntax-ns#"
   xmlns:svg="http://www.w3.org/2000/svg"
   xmlns="http://www.w3.org/2000/svg"
   viewBox="0 0 20.106667 15.226667"
   height="15.226667"
   width="20.106667"
   xml:space="preserve"
   id="svg2"
   version="1.1"><metadata
     id="metadata8"><rdf:RDF><cc:Work
         rdf:about=""><dc:format>image/svg+xml</dc:format><dc:type
           rdf:resource="http://purl.org/dc/dcmitype/StillImage" /></cc:Work></rdf:RDF></metadata><defs
     id="defs6" /><g
     transform="matrix(1.3333333,0,0,-1.3333333,0,15.226667)"
     id="g10"><g
       transform="scale(0.1)"
       id="g12"><path
         id="path14"
         style="fill:#000000;fill-opacity:1;fill-rule:nonzero;stroke:none"
         d="m 56.1563,80.332 c 2.832,0 5.1328,2.3008 5.1328,5.1328 0,2.836 -2.3008,5.1368 -5.1328,5.1368 -2.836,0 -5.1368,-2.3008 -5.1368,-5.1368 0,-2.8359 2.3008,-5.1328 5.1368,-5.1328" /><path
         id="path16"
         style="fill:#000000;fill-opacity:1;fill-rule:nonzero;stroke:none"
         d="m 19.3086,80.332 c 2.832,0 5.1289,2.3008 5.1289,5.1328 0,2.836 -2.2969,5.1368 -5.1289,5.1368 -2.8398,0 -5.1367,-2.3008 -5.1367,-5.1368 0,-2.8359 2.2969,-5.1328 5.1367,-5.1328" /><path
         id="path18"
         style="fill:#000000;fill-opacity:1;fill-rule:nonzero;stroke:none"
         d="m 94.7695,23.6367 c 2.8321,0 5.1328,2.3047 5.1328,5.1367 0,2.8321 -2.3007,5.1329 -5.1328,5.1329 -2.8359,0 -5.1367,-2.3008 -5.1367,-5.1329 0,-2.8359 2.3008,-5.1367 5.1367,-5.1367" /><path
         id="path20"
         style="fill:#000000;fill-opacity:1;fill-rule:nonzero;stroke:none"
         d="m 131.621,23.6367 c 2.832,0 5.133,2.3008 5.133,5.1367 0,2.8321 -2.301,5.1329 -5.133,5.1329 -2.836,0 -5.137,-2.3008 -5.137,-5.1329 0,-2.8359 2.301,-5.1367 5.137,-5.1367" /></g></g></svg>