<?xml version="1.0" encoding="UTF-8" standalone="no"?>
<svg
   xmlns:dc="http://purl.org/dc/elements/1.1/"
   xmlns:cc="http://creativecommons.org/ns#"
   xmlns:rdf="http://www.w3.org/1999/02/22-rdf-syntax-ns#"
   xmlns:svg="http://www.w3.org/2000/svg"
   xmlns="http://www.w3.org/2000/svg"
   viewBox="0 0 25.386667 20.613333"
   height="20.613333"
   width="25.386667"
   xml:space="preserve"
   id="svg2"
   version="1.1"><metadata
     id="metadata8"><rdf:RDF><cc:Work
         rdf:about=""><dc:format>image/svg+xml</dc:format><dc:type
           rdf:resource="http://purl.org/dc/dcmitype/StillImage" /></cc:Work></rdf:RDF></metadata><defs
     id="defs6" /><g
     transform="matrix(1.3333333,0,0,-1.3333333,0,20.613333)"
     id="g10"><g
       transform="scale(0.1)"
       id="g12"><path
         id="path14"
         style="fill:none;stroke:#000000;stroke-width:3;stroke-linecap:butt;stroke-linejoin:miter;stroke-miterlimit:4;stroke-dasharray:none;stroke-opacity:1"
         d="m 24.918,121.566 c -0.4688,-2.347 -0.5508,-3.363 -0.5625,-4.128 0,-11.739 10.4648,-21.2622 23.3828,-21.2622 12.918,0 23.3867,9.5232 23.3867,21.2622 -0.1133,2.457 -0.2305,3.507 -0.332,4.128" /><path
         id="path16"
         style="fill:none;stroke:#000000;stroke-width:3;stroke-linecap:butt;stroke-linejoin:miter;stroke-miterlimit:4;stroke-dasharray:none;stroke-opacity:1"
         d="m 120.449,57.2344 c -0.469,-2.3477 -0.551,-3.3633 -0.562,-4.1289 0,-11.7344 10.465,-21.2578 23.386,-21.2578 12.915,0 23.387,9.5195 23.387,21.2578 -0.113,2.457 -0.23,3.5117 -0.332,4.1289" /></g></g></svg>