<?xml version="1.0" encoding="UTF-8" standalone="no"?>
<svg
   xmlns:dc="http://purl.org/dc/elements/1.1/"
   xmlns:cc="http://creativecommons.org/ns#"
   xmlns:rdf="http://www.w3.org/1999/02/22-rdf-syntax-ns#"
   xmlns:svg="http://www.w3.org/2000/svg"
   xmlns="http://www.w3.org/2000/svg"
   viewBox="0 0 55.533333 27.666668"
   height="27.666668"
   width="55.533333"
   xml:space="preserve"
   id="svg2"
   version="1.1"><metadata
     id="metadata8"><rdf:RDF><cc:Work
         rdf:about=""><dc:format>image/svg+xml</dc:format><dc:type
           rdf:resource="http://purl.org/dc/dcmitype/StillImage" /></cc:Work></rdf:RDF></metadata><defs
     id="defs6" /><g
     transform="matrix(1.3333333,0,0,-1.3333333,0,27.666667)"
     id="g10"><g
       transform="scale(0.1)"
       id="g12"><path
         id="path14"
         style="fill:#000000;fill-opacity:1;fill-rule:nonzero;stroke:none"
         d="m 103.809,141.453 c 13.496,0 24.445,6.352 24.445,14.184 0,7.82 -10.949,14.168 -24.445,14.168 -13.5082,0 -24.4535,-6.348 -24.4535,-14.168 0,-7.832 10.9453,-14.184 24.4535,-14.184" /><path
         id="path16"
         style="fill:none;stroke:#000000;stroke-width:6;stroke-linecap:butt;stroke-linejoin:miter;stroke-miterlimit:4;stroke-dasharray:none;stroke-opacity:1"
         d="M 58.6133,156.262 H 149.609" /><path
         id="path18"
         style="fill:#000000;fill-opacity:1;fill-rule:nonzero;stroke:none"
         d="m 312.043,37.7031 c 13.504,0 24.441,6.3516 24.441,14.1836 0,7.8203 -10.937,14.168 -24.441,14.168 -13.508,0 -24.445,-6.3477 -24.445,-14.168 0,-7.832 10.937,-14.1836 24.445,-14.1836" /><path
         id="path20"
         style="fill:none;stroke:#000000;stroke-width:6;stroke-linecap:butt;stroke-linejoin:miter;stroke-miterlimit:4;stroke-dasharray:none;stroke-opacity:1"
         d="m 266.855,52.5117 h 90.997" /></g></g></svg>