<?xml version="1.0" encoding="UTF-8" standalone="no"?>
<svg
   xmlns:dc="http://purl.org/dc/elements/1.1/"
   xmlns:cc="http://creativecommons.org/ns#"
   xmlns:rdf="http://www.w3.org/1999/02/22-rdf-syntax-ns#"
   xmlns:svg="http://www.w3.org/2000/svg"
   xmlns="http://www.w3.org/2000/svg"
   viewBox="0 0 69.506668 41"
   height="41"
   width="69.506668"
   xml:space="preserve"
   id="svg2"
   version="1.1"><metadata
     id="metadata8"><rdf:RDF><cc:Work
         rdf:about=""><dc:format>image/svg+xml</dc:format><dc:type
           rdf:resource="http://purl.org/dc/dcmitype/StillImage" /></cc:Work></rdf:RDF></metadata><defs
     id="defs6" /><g
     transform="matrix(1.3333333,0,0,-1.3333333,0,41)"
     id="g10"><g
       transform="scale(0.1)"
       id="g12"><path
         id="path14"
         style="fill:#231f20;fill-opacity:1;fill-rule:nonzero;stroke:none"
         d="m 89.6289,239.883 c -2.5469,2.863 -4.6562,6.008 -6.0078,9.758 -2.5469,-7.356 -8.5508,-12.598 -13.9453,-17.551 -6.0039,-5.399 -11.1016,-9.902 -11.1016,-15.887 0,-1.66 0.6016,-3.75 1.6602,-6.152 0.8867,-1.809 2.0898,-3.156 3.4375,-4.211 l 30,30 -4.043,4.043 z M 107.18,210.051 c 1.043,2.402 1.636,4.492 1.636,6.152 0,5.985 -5.093,10.488 -11.0816,15.887 l -2.1094,1.945 -29.4062,-29.543 c 1.0585,-0.301 2.1132,-0.461 3.3125,-0.461 5.8398,0 11.6914,3.305 13.039,5.414 0.1641,0.438 0.5938,0.606 1.0508,0.606 0.5977,0 1.0547,-0.168 1.2031,-0.606 1.3477,-2.109 7.2071,-5.414 13.0469,-5.414 4.2069,0.16 7.3629,2.102 9.3089,6.02 v 0 z m -51.0081,-15.606 -1.6406,2.086 7.1875,7.367 c -1.4844,1.192 -2.836,2.832 -3.8907,4.942 -2.5508,4.961 -2.5508,9.746 0,14.402 2.2422,4.043 5.9922,7.356 10.043,10.949 7.0508,6.289 14.4062,12.606 14.4062,23.094 0,0.762 0.75,1.348 1.3438,1.348 1.0547,0 1.5156,-0.438 1.5156,-1.348 0,-7.644 4.1797,-13.652 9.1406,-18.289 l 1.1915,-1.211 11.7112,11.707 1.804,-2.109 -11.5621,-11.543 c 0.7422,-0.457 1.3476,-1.055 2.1094,-1.649 4.0427,-3.593 7.7927,-6.906 10.0467,-10.949 2.551,-4.656 2.551,-9.441 0,-14.402 -2.547,-4.809 -6.453,-7.348 -11.7069,-7.5 -4.8047,-0.141 -9.9023,1.953 -12.7344,4.207 v -24.902 h -2.8594 v 24.902 c -3,-2.254 -7.9609,-4.348 -12.746,-4.207 -1.961,0 -3.75,0.293 -5.4102,1.043 l -7.9492,-7.938 v 0" /><path
         id="path16"
         style="fill:#231f20;fill-opacity:1;fill-rule:nonzero;stroke:none"
         d="m 333.684,239.883 c -2.563,2.863 -4.668,6.008 -6.016,9.758 -2.539,-7.356 -8.559,-12.598 -13.945,-17.551 -5.996,-5.399 -11.094,-9.902 -11.094,-15.887 0,-1.66 0.594,-3.75 1.656,-6.152 0.879,-1.809 2.094,-3.156 3.442,-4.211 l 30,30 -4.043,4.043 z m 17.539,-29.832 c 1.05,2.402 1.636,4.492 1.636,6.152 0,5.985 -5.093,10.488 -11.074,15.887 l -2.105,1.945 -29.414,-29.543 c 1.05,-0.301 2.105,-0.461 3.32,-0.461 5.84,0 11.68,3.305 13.023,5.414 0.176,0.438 0.61,0.606 1.059,0.606 0.602,0 1.055,-0.168 1.211,-0.606 1.348,-2.109 7.207,-5.414 13.047,-5.414 4.195,0.16 7.359,2.102 9.297,6.02 v 0 z m -50.996,-15.606 -1.641,2.086 7.184,7.367 c -1.485,1.192 -2.84,2.832 -3.895,4.942 -2.551,4.961 -2.551,9.746 0,14.402 2.234,4.043 5.984,7.356 10.051,10.949 7.051,6.289 14.39,12.606 14.39,23.094 0,0.762 0.762,1.348 1.352,1.348 1.055,0 1.52,-0.438 1.52,-1.348 0,-7.644 4.179,-13.652 9.14,-18.289 l 1.192,-1.211 11.703,11.707 1.812,-2.109 -11.558,-11.543 c 0.742,-0.457 1.343,-1.055 2.109,-1.649 4.043,-3.593 7.793,-6.906 10.035,-10.949 2.563,-4.656 2.563,-9.441 0,-14.402 -2.535,-4.809 -6.441,-7.348 -11.695,-7.5 -4.809,-0.141 -9.906,1.953 -12.738,4.207 v -24.902 h -2.872 v 24.902 c -2.988,-2.254 -7.949,-4.348 -12.73,-4.207 -1.977,0 -3.75,0.293 -5.41,1.043 l -7.949,-7.938 v 0" /><path
         id="path18"
         style="fill:#231f20;fill-opacity:1;fill-rule:nonzero;stroke:none"
         d="m 198.926,97.9961 c -2.547,2.8629 -4.656,6.0079 -6.004,9.7579 -2.551,-7.352 -8.559,-12.5977 -13.945,-17.5509 -6.008,-5.3984 -11.106,-9.8984 -11.106,-15.8867 0,-1.6601 0.602,-3.75 1.66,-6.1523 0.891,-1.8047 2.09,-3.1524 3.438,-4.211 l 30,30 -4.043,4.043 z m 17.551,-29.832 c 1.043,2.4023 1.636,4.4922 1.636,6.1523 0,5.9883 -5.093,10.4883 -11.082,15.8867 l -2.109,1.9453 -29.402,-29.539 c 1.05,-0.3047 2.109,-0.461 3.308,-0.461 5.84,0 11.692,3.3008 13.035,5.4102 0.168,0.4375 0.598,0.6055 1.059,0.6055 0.594,0 1.055,-0.168 1.199,-0.6055 1.348,-2.1094 7.207,-5.4102 13.047,-5.4102 4.211,0.1563 7.363,2.0977 9.309,6.0157 v 0 z m -51.008,-15.6055 -1.641,2.0898 7.188,7.3633 c -1.485,1.1914 -2.836,2.8321 -3.891,4.9414 -2.551,4.961 -2.551,9.7461 0,14.4063 2.238,4.0429 5.988,7.3515 10.043,10.9453 7.051,6.2891 14.402,12.6053 14.402,23.0973 0,0.758 0.754,1.344 1.352,1.344 1.055,0 1.512,-0.437 1.512,-1.344 0,-7.648 4.179,-13.656 9.14,-18.2926 l 1.192,-1.211 11.711,11.7106 1.804,-2.113 -11.562,-11.5429 c 0.742,-0.457 1.347,-1.0508 2.109,-1.6484 4.043,-3.5938 7.793,-6.9024 10.051,-10.9453 2.547,-4.6602 2.547,-9.4453 0,-14.4063 -2.551,-4.8047 -6.457,-7.3437 -11.711,-7.5 -4.805,-0.1367 -9.902,1.9532 -12.734,4.2071 V 38.7617 h -2.864 v 24.8985 c -2.996,-2.2539 -7.957,-4.3438 -12.742,-4.2071 -1.965,0 -3.75,0.293 -5.41,1.043 l -7.949,-7.9375 v 0" /><path
         id="path20"
         style="fill:#231f20;fill-opacity:1;fill-rule:nonzero;stroke:none"
         d="m 442.98,97.9961 c -2.558,2.8629 -4.667,6.0079 -6.015,9.7579 -2.539,-7.352 -8.559,-12.5977 -13.945,-17.5509 -6,-5.3984 -11.094,-9.8984 -11.094,-15.8867 0,-1.6601 0.594,-3.75 1.66,-6.1523 0.879,-1.8047 2.09,-3.1524 3.434,-4.211 l 30,30 -4.04,4.043 z m 17.54,-29.832 c 1.05,2.4023 1.636,4.4922 1.636,6.1523 0,5.9883 -5.093,10.4883 -11.07,15.8867 l -2.109,1.9453 -29.414,-29.539 c 1.05,-0.3047 2.109,-0.461 3.32,-0.461 5.84,0 11.68,3.3008 13.023,5.4102 0.18,0.4375 0.61,0.6055 1.059,0.6055 0.601,0 1.055,-0.168 1.211,-0.6055 1.344,-2.1094 7.207,-5.4102 13.047,-5.4102 4.199,0.1563 7.363,2.0977 9.297,6.0157 v 0 z m -51,-15.6055 -1.637,2.0898 7.183,7.3633 c -1.48,1.1914 -2.839,2.8321 -3.894,4.9414 -2.551,4.961 -2.551,9.7461 0,14.4063 2.234,4.0429 5.984,7.3515 10.051,10.9453 7.047,6.2891 14.39,12.6053 14.39,23.0973 0,0.758 0.766,1.344 1.352,1.344 1.055,0 1.519,-0.437 1.519,-1.344 0,-7.648 4.184,-13.656 9.145,-18.2926 l 1.187,-1.211 11.704,11.7106 1.816,-2.113 -11.566,-11.5429 c 0.746,-0.457 1.347,-1.0508 2.113,-1.6484 4.043,-3.5938 7.793,-6.9024 10.039,-10.9453 2.558,-4.6602 2.558,-9.4453 0,-14.4063 -2.539,-4.8047 -6.445,-7.3437 -11.699,-7.5 -4.805,-0.1367 -9.907,1.9532 -12.739,4.2071 V 38.7617 h -2.871 v 24.8985 c -2.984,-2.2539 -7.945,-4.3438 -12.73,-4.2071 -1.977,0 -3.75,0.293 -5.41,1.043 l -7.953,-7.9375 v 0" /></g></g></svg>