<?xml version="1.0" encoding="UTF-8" standalone="no"?>
<svg
   xmlns:dc="http://purl.org/dc/elements/1.1/"
   xmlns:cc="http://creativecommons.org/ns#"
   xmlns:rdf="http://www.w3.org/1999/02/22-rdf-syntax-ns#"
   xmlns:svg="http://www.w3.org/2000/svg"
   xmlns="http://www.w3.org/2000/svg"
   viewBox="0 0 45.946667 22.853333"
   height="22.853333"
   width="45.946667"
   xml:space="preserve"
   id="svg2"
   version="1.1"><metadata
     id="metadata8"><rdf:RDF><cc:Work
         rdf:about=""><dc:format>image/svg+xml</dc:format><dc:type
           rdf:resource="http://purl.org/dc/dcmitype/StillImage" /></cc:Work></rdf:RDF></metadata><defs
     id="defs6" /><g
     transform="matrix(1.3333333,0,0,-1.3333333,0,22.853333)"
     id="g10"><g
       transform="scale(0.1)"
       id="g12"><path
         id="path14"
         style="fill:none;stroke:#000000;stroke-width:3;stroke-linecap:square;stroke-linejoin:miter;stroke-miterlimit:4;stroke-dasharray:none;stroke-opacity:1"
         d="m 2.11719,141.172 c 10.61331,-11.695 16.45311,4.633 23.08201,9.555 10.8125,8.019 8.75,8.371 19.8281,19.668" /><path
         id="path16"
         style="fill:none;stroke:#000000;stroke-width:3;stroke-linecap:square;stroke-linejoin:miter;stroke-miterlimit:4;stroke-dasharray:none;stroke-opacity:1"
         d="M 171.898,170.395 C 164.57,159.84 161.445,162.598 152.699,148.852 143.816,134.895 139.605,132.145 133.52,144.898 127.195,158.16 110.184,113.063 102.699,96.3516 95.2148,79.6445 89.1328,78.3359 84.457,91.957 79.6641,105.93 55.1563,65.6289 49.543,54.6406 43.9297,43.6445 40.25,40.3672 35.5117,48.043 28.8477,58.832 15.3984,33.9766 10.2539,24.7422 L 2.11719,12.9063" /><path
         id="path18"
         style="fill:none;stroke:#000000;stroke-width:3;stroke-linecap:square;stroke-linejoin:miter;stroke-miterlimit:4;stroke-dasharray:none;stroke-opacity:1"
         d="m 240.336,0.96875 c 0,0 9.238,17.25395 18.613,7.25781 9.375,-10 21.266,15.88674 26.875,26.87504 0,0 9.688,33.4414 17.5,9.375 4.176,-12.1602 31.828,23.7187 39.164,34.0039" /><path
         id="path20"
         style="fill:none;stroke:#000000;stroke-width:3;stroke-linecap:square;stroke-linejoin:miter;stroke-miterlimit:4;stroke-dasharray:none;stroke-opacity:1"
         d="M 342.488,12.9063 C 339.047,9.0625 333.891,-5.625 326.449,11.3516 322.098,20.7773 309.07,13.8789 303.66,0.96875" /><path
         id="path22"
         style="fill:none;stroke:#000000;stroke-width:3;stroke-linecap:square;stroke-linejoin:miter;stroke-miterlimit:4;stroke-dasharray:none;stroke-opacity:1"
         d="m 45.0273,0.96875 c 8.2579,8.42188 8.504,19.93355 15.1719,9.13285 4.7383,-7.67582 8.418,-4.40238 14.0352,6.5976 5.6094,10.9883 27.3046,51.0977 32.0976,37.1328 4.684,-13.6367 10.758,-12.3125 18.242,4.3946 7.481,16.707 27.024,53.7424 33.348,40.4804 6.078,-12.75 13.094,-11.4414 19.176,3.953 3.218,8.77 6.769,18.887 10.437,28.485 3.633,8.793 7.145,14.402 9.676,9.328 8.75,-17.504 38.867,21.715 43.125,29.922" /><path
         id="path24"
         style="fill:none;stroke:#000000;stroke-width:3;stroke-linecap:square;stroke-linejoin:miter;stroke-miterlimit:4;stroke-dasharray:none;stroke-opacity:1"
         d="m 105.336,0.96875 c 0,0 22.91,39.58205 29.582,28.78905 4.738,-7.6836 8.422,-4.3906 14.031,6.5938 5.61,10.9922 35.051,46.4961 39.84,32.5273 4.68,-13.6328 10.762,-12.3047 18.242,4.3984 7.485,16.7032 17.067,49.3167 23.391,36.0547 6.082,-12.7539 13.098,-11.4297 19.176,3.953 6.082,15.391 15.047,47.961 20.113,37.813 7.344,-14.696 26.352,1.168 33.949,19.297" /><path
         id="path26"
         style="fill:none;stroke:#000000;stroke-width:3;stroke-linecap:square;stroke-linejoin:miter;stroke-miterlimit:4;stroke-dasharray:none;stroke-opacity:1"
         d="m 342.488,141.172 c -0.816,0.902 -2.293,2.68 -3.996,4.578 -1.836,1.727 -4.23,2.793 -7.043,0.602 -8.949,-6.961 -6.722,-14.204 -12.801,-29.598 -6.082,-15.375 -13.097,-16.715 -19.179,-3.957 -6.328,13.269 -15.906,-19.3439 -23.391,-36.0548 -7.484,-16.707 -16.832,-24.6367 -21.504,-11.0156 -4.789,13.9648 -31.25,-27.5 -41.875,-38.75 -3.758,-4.2578 -6.445,-7.5313 -8.418,-9.5391 -1.855,-1.4883 -3.246,-0.8945 -5.613,2.9453 -6.672,10.8008 -26.77,-19.41405 -26.77,-19.41405" /><path
         id="path28"
         style="fill:none;stroke:#000000;stroke-width:3;stroke-linecap:square;stroke-linejoin:miter;stroke-miterlimit:4;stroke-dasharray:none;stroke-opacity:1"
         d="m 2.11719,78.4805 c 1.21094,2.1992 3.51172,6.914 4.71484,3.414 4.67187,-13.6289 10.75777,-12.3086 18.24217,4.3985 7.4805,16.711 17.0586,49.316 23.3867,36.055 6.0821,-12.754 13.1016,-11.43 19.1797,3.957 3.375,8.543 11.3086,34.422 20.3711,28.496 8.2422,-5.387 14.4103,11.929 17.3243,15.594" /></g></g></svg>