<?xml version="1.0" encoding="UTF-8" standalone="no"?>
<svg
   xmlns:dc="http://purl.org/dc/elements/1.1/"
   xmlns:cc="http://creativecommons.org/ns#"
   xmlns:rdf="http://www.w3.org/1999/02/22-rdf-syntax-ns#"
   xmlns:svg="http://www.w3.org/2000/svg"
   xmlns="http://www.w3.org/2000/svg"
   viewBox="0 0 70.120003 41.453335"
   height="41.453335"
   width="70.120003"
   xml:space="preserve"
   id="svg2"
   version="1.1"><metadata
     id="metadata8"><rdf:RDF><cc:Work
         rdf:about=""><dc:format>image/svg+xml</dc:format><dc:type
           rdf:resource="http://purl.org/dc/dcmitype/StillImage" /></cc:Work></rdf:RDF></metadata><defs
     id="defs6" /><g
     transform="matrix(1.3333333,0,0,-1.3333333,0,41.453333)"
     id="g10"><g
       transform="scale(0.1)"
       id="g12"><path
         id="path14"
         style="fill:none;stroke:#231f20;stroke-width:3;stroke-linecap:square;stroke-linejoin:miter;stroke-miterlimit:4;stroke-dasharray:none;stroke-opacity:1"
         d="m 342.488,151.262 c -3.433,-3.84 -8.593,-18.535 -16.035,-1.555 -4.351,9.426 -17.383,2.52 -22.793,-10.391" /><path
         id="path16"
         style="fill:none;stroke:#231f20;stroke-width:3;stroke-linecap:square;stroke-linejoin:miter;stroke-miterlimit:4;stroke-dasharray:none;stroke-opacity:1"
         d="m 45.0313,139.316 c 8.2578,8.426 8.5039,19.942 15.1757,9.141 4.7344,-7.676 8.4141,-4.402 14.0313,6.602 5.6133,10.976 27.3047,51.093 32.1017,37.129 4.676,-13.633 10.762,-12.317 18.238,4.394 7.485,16.699 27.024,53.742 33.352,40.481 6.074,-12.754 13.086,-11.446 19.172,3.953 3.218,8.769 6.777,18.886 10.437,28.476 3.633,8.801 7.149,14.406 9.68,9.336 8.75,-17.508 38.867,21.719 43.125,29.922" /><path
         id="path18"
         style="fill:none;stroke:#231f20;stroke-width:3;stroke-linecap:square;stroke-linejoin:miter;stroke-miterlimit:4;stroke-dasharray:none;stroke-opacity:1"
         d="m 342.488,279.523 c -0.808,0.907 -2.285,2.684 -3.992,4.579 -1.836,1.73 -4.226,2.793 -7.043,0.605 -8.941,-6.961 -6.726,-14.199 -12.801,-29.598 -6.086,-15.382 -13.093,-16.711 -19.179,-3.957 -6.328,13.262 -15.91,-19.343 -23.387,-36.054 -7.481,-16.707 -16.84,-24.637 -21.508,-11.016 -4.781,13.965 -31.25,-27.5 -41.875,-38.75 -3.758,-4.258 -6.441,-7.539 -8.418,-9.543 -1.851,-1.48 -3.238,-0.894 -5.613,2.941 -6.668,10.801 -26.77,-19.414 -26.77,-19.414" /><path
         id="path20"
         style="fill:none;stroke:#231f20;stroke-width:3;stroke-linecap:square;stroke-linejoin:miter;stroke-miterlimit:4;stroke-dasharray:none;stroke-opacity:1"
         d="m 2.11719,216.836 c 1.21484,2.199 3.51953,6.914 4.71875,3.418 4.67966,-13.633 10.76176,-12.313 18.24216,4.394 7.4805,16.711 17.0625,49.317 23.3907,36.055 6.0703,-12.754 13.0937,-11.433 19.1796,3.957 3.3672,8.543 11.3086,34.422 20.3711,28.496 8.2422,-5.383 14.4145,11.922 17.3245,15.594" /><path
         id="path22"
         style="fill:none;stroke:#231f20;stroke-width:3;stroke-linecap:square;stroke-linejoin:miter;stroke-miterlimit:4;stroke-dasharray:none;stroke-opacity:1"
         d="m 342.117,279.523 c 10.617,-11.691 16.457,4.637 23.086,9.559 10.813,8.02 8.75,8.371 19.824,19.668" /><path
         id="path24"
         style="fill:none;stroke:#231f20;stroke-width:3;stroke-linecap:square;stroke-linejoin:miter;stroke-miterlimit:4;stroke-dasharray:none;stroke-opacity:1"
         d="m 511.902,308.75 c -7.332,-10.555 -10.449,-7.801 -19.199,-21.543 -8.887,-13.965 -13.094,-16.707 -19.18,-3.953 -6.328,13.262 -23.335,-31.836 -30.82,-48.547 -7.476,-16.707 -13.562,-18.016 -18.238,-4.394 -4.797,13.964 -29.297,-26.329 -34.922,-37.325 -5.605,-10.996 -9.289,-14.265 -14.023,-6.59 -6.672,10.79 -20.122,-14.074 -25.254,-23.3 l -8.149,-11.836" /><path
         id="path26"
         style="fill:none;stroke:#231f20;stroke-width:3;stroke-linecap:square;stroke-linejoin:miter;stroke-miterlimit:4;stroke-dasharray:none;stroke-opacity:1"
         d="m 445.344,139.316 c 0,0 22.91,39.59 29.578,28.789 4.734,-7.675 8.43,-4.382 14.031,6.602 4.563,8.938 24.848,34.031 34.856,35.652" /><path
         id="path28"
         style="fill:none;stroke:#231f20;stroke-width:3;stroke-linecap:square;stroke-linejoin:miter;stroke-miterlimit:4;stroke-dasharray:none;stroke-opacity:1"
         d="m 2.11719,109.523 c 10.61721,-11.691 16.45701,4.637 23.08981,9.559 10.8086,8.02 8.75,8.367 19.8243,19.668" /><path
         id="path30"
         style="fill:none;stroke:#231f20;stroke-width:3;stroke-linecap:square;stroke-linejoin:miter;stroke-miterlimit:4;stroke-dasharray:none;stroke-opacity:1"
         d="m 171.902,138.75 c -7.332,-10.559 -10.449,-7.805 -19.199,-21.543 -8.887,-13.965 -13.094,-16.711 -19.18,-3.953 -6.328,13.262 -23.335,-31.8399 -30.82,-48.547 C 95.2227,47.9961 89.1406,46.6914 84.4648,60.3125 79.668,74.2773 55.1641,33.9844 49.5391,22.9883 43.9336,11.9922 40.2539,8.72266 35.5195,16.3984 c -5,8.0938 -13.8086,-3.8711 -20.0781,-14.24996" /><path
         id="path32"
         style="fill:none;stroke:#231f20;stroke-width:3;stroke-linecap:square;stroke-linejoin:miter;stroke-miterlimit:4;stroke-dasharray:none;stroke-opacity:1"
         d="m 285.828,3.45703 c 0,0 9.692,33.43747 17.5,9.37497 4.184,-12.167937 31.828,23.711 39.16,34.0039" /><path
         id="path34"
         style="fill:none;stroke:#231f20;stroke-width:3;stroke-linecap:square;stroke-linejoin:miter;stroke-miterlimit:4;stroke-dasharray:none;stroke-opacity:1"
         d="m 147.551,2.03125 c 0.445,0.82813 0.926,1.73047 1.402,2.67578 5.61,10.98437 35.051,46.49217 39.848,32.51957 4.676,-13.6211 10.762,-12.293 18.238,4.4062 7.481,16.707 17.063,49.3125 23.391,36.0547 6.086,-12.7539 13.093,-11.4375 19.172,3.9531 6.082,15.3907 15.046,47.9614 20.117,37.8124 7.344,-14.695 26.344,1.16 33.941,19.297" /><path
         id="path36"
         style="fill:none;stroke:#231f20;stroke-width:3;stroke-linecap:square;stroke-linejoin:miter;stroke-miterlimit:4;stroke-dasharray:none;stroke-opacity:1"
         d="m 423.723,2.21875 c 8.472,14.23435 19.382,29.38285 22.617,19.96875 4.676,-13.63281 10.762,-12.31641 18.238,4.3945 7.485,16.6993 27.024,53.7383 33.352,40.4805 6.074,-12.7539 13.086,-11.4492 19.172,3.9531 2.175,5.918 4.5,12.4414 6.914,19.0117" /><path
         id="path38"
         style="fill:none;stroke:#231f20;stroke-width:3;stroke-linecap:square;stroke-linejoin:miter;stroke-miterlimit:4;stroke-dasharray:none;stroke-opacity:1"
         d="m 342.117,46.8359 c 1.211,2.1954 3.52,6.9141 4.719,3.418 4.68,-13.6328 10.762,-12.3125 18.242,4.3945 7.481,16.711 17.063,49.3166 23.391,36.0547 6.074,-12.7539 13.094,-11.4336 19.176,3.9532 3.371,8.5467 11.308,34.4257 20.375,28.4957 8.242,-5.379 14.414,11.926 17.324,15.598" /><path
         id="path40"
         style="fill:none;stroke:#231f20;stroke-width:3;stroke-linecap:butt;stroke-linejoin:miter;stroke-miterlimit:4;stroke-dasharray:none;stroke-opacity:1"
         d="M 129.797,274.961 91.7109,236.875" /><path
         id="path42"
         style="fill:none;stroke:#231f20;stroke-width:3;stroke-linecap:butt;stroke-linejoin:miter;stroke-miterlimit:4;stroke-dasharray:none;stroke-opacity:1"
         d="M 91.7188,274.953 129.797,236.875" /><path
         id="path44"
         style="fill:none;stroke:#231f20;stroke-width:3;stroke-linecap:butt;stroke-linejoin:miter;stroke-miterlimit:4;stroke-dasharray:none;stroke-opacity:1"
         d="M 273.547,274.973 235.461,236.875" /><path
         id="path46"
         style="fill:none;stroke:#231f20;stroke-width:3;stroke-linecap:butt;stroke-linejoin:miter;stroke-miterlimit:4;stroke-dasharray:none;stroke-opacity:1"
         d="m 235.461,274.961 38.086,-38.086" /><path
         id="path48"
         style="fill:none;stroke:#231f20;stroke-width:3;stroke-linecap:butt;stroke-linejoin:miter;stroke-miterlimit:4;stroke-dasharray:none;stroke-opacity:1"
         d="M 417.297,274.961 379.211,236.875" /><path
         id="path50"
         style="fill:none;stroke:#231f20;stroke-width:3;stroke-linecap:butt;stroke-linejoin:miter;stroke-miterlimit:4;stroke-dasharray:none;stroke-opacity:1"
         d="m 379.219,274.953 38.078,-38.078" /><path
         id="path52"
         style="fill:none;stroke:#231f20;stroke-width:3;stroke-linecap:butt;stroke-linejoin:miter;stroke-miterlimit:4;stroke-dasharray:none;stroke-opacity:1"
         d="M 129.797,164.961 91.7109,126.875" /><path
         id="path54"
         style="fill:none;stroke:#231f20;stroke-width:3;stroke-linecap:butt;stroke-linejoin:miter;stroke-miterlimit:4;stroke-dasharray:none;stroke-opacity:1"
         d="M 91.7109,164.949 129.797,126.875" /><path
         id="path56"
         style="fill:none;stroke:#231f20;stroke-width:3;stroke-linecap:butt;stroke-linejoin:miter;stroke-miterlimit:4;stroke-dasharray:none;stroke-opacity:1"
         d="M 273.547,164.973 235.461,126.875" /><path
         id="path58"
         style="fill:none;stroke:#231f20;stroke-width:3;stroke-linecap:butt;stroke-linejoin:miter;stroke-miterlimit:4;stroke-dasharray:none;stroke-opacity:1"
         d="m 235.469,164.961 38.078,-38.086" /><path
         id="path60"
         style="fill:none;stroke:#231f20;stroke-width:3;stroke-linecap:butt;stroke-linejoin:miter;stroke-miterlimit:4;stroke-dasharray:none;stroke-opacity:1"
         d="M 417.297,164.961 379.211,126.875" /><path
         id="path62"
         style="fill:none;stroke:#231f20;stroke-width:3;stroke-linecap:butt;stroke-linejoin:miter;stroke-miterlimit:4;stroke-dasharray:none;stroke-opacity:1"
         d="m 379.219,164.961 38.078,-38.086" /><path
         id="path64"
         style="fill:none;stroke:#231f20;stroke-width:3;stroke-linecap:butt;stroke-linejoin:miter;stroke-miterlimit:4;stroke-dasharray:none;stroke-opacity:1"
         d="M 129.797,54.9609 91.7109,16.875" /><path
         id="path66"
         style="fill:none;stroke:#231f20;stroke-width:3;stroke-linecap:butt;stroke-linejoin:miter;stroke-miterlimit:4;stroke-dasharray:none;stroke-opacity:1"
         d="M 91.7109,54.9609 129.797,16.875" /><path
         id="path68"
         style="fill:none;stroke:#231f20;stroke-width:3;stroke-linecap:butt;stroke-linejoin:miter;stroke-miterlimit:4;stroke-dasharray:none;stroke-opacity:1"
         d="M 273.547,54.9609 235.461,16.8633" /><path
         id="path70"
         style="fill:none;stroke:#231f20;stroke-width:3;stroke-linecap:butt;stroke-linejoin:miter;stroke-miterlimit:4;stroke-dasharray:none;stroke-opacity:1"
         d="M 235.469,54.9492 273.547,16.8633" /><path
         id="path72"
         style="fill:none;stroke:#231f20;stroke-width:3;stroke-linecap:butt;stroke-linejoin:miter;stroke-miterlimit:4;stroke-dasharray:none;stroke-opacity:1"
         d="M 417.297,54.9609 379.211,16.875" /><path
         id="path74"
         style="fill:none;stroke:#231f20;stroke-width:3;stroke-linecap:butt;stroke-linejoin:miter;stroke-miterlimit:4;stroke-dasharray:none;stroke-opacity:1"
         d="M 379.211,54.9609 417.297,16.875" /></g></g></svg>