<?xml version="1.0" encoding="UTF-8" standalone="no"?>
<svg
   xmlns:dc="http://purl.org/dc/elements/1.1/"
   xmlns:cc="http://creativecommons.org/ns#"
   xmlns:rdf="http://www.w3.org/1999/02/22-rdf-syntax-ns#"
   xmlns:svg="http://www.w3.org/2000/svg"
   xmlns="http://www.w3.org/2000/svg"
   viewBox="0 0 36.973331 15.946667"
   height="15.946667"
   width="36.973331"
   xml:space="preserve"
   id="svg2"
   version="1.1"><metadata
     id="metadata8"><rdf:RDF><cc:Work
         rdf:about=""><dc:format>image/svg+xml</dc:format><dc:type
           rdf:resource="http://purl.org/dc/dcmitype/StillImage" /></cc:Work></rdf:RDF></metadata><defs
     id="defs6" /><g
     transform="matrix(1.3333333,0,0,-1.3333333,0,15.946667)"
     id="g10"><g
       transform="scale(0.1)"
       id="g12"><path
         id="path14"
         style="fill:none;stroke:#000000;stroke-width:3;stroke-linecap:square;stroke-linejoin:miter;stroke-miterlimit:4;stroke-dasharray:none;stroke-opacity:1"
         d="M 267.75,91.9883 256.254,115.113 244.75,91.9883" /><path
         id="path16"
         style="fill:none;stroke:#000000;stroke-width:3;stroke-linecap:square;stroke-linejoin:miter;stroke-miterlimit:4;stroke-dasharray:none;stroke-opacity:1"
         d="M 266.5,36.1133 255.004,59.2383 243.5,36.1133" /><path
         id="path18"
         style="fill:none;stroke:#000000;stroke-width:3;stroke-linecap:square;stroke-linejoin:miter;stroke-miterlimit:4;stroke-dasharray:none;stroke-opacity:1"
         d="M 131.5,89.3477 120.004,112.473 108.5,89.3477" /><path
         id="path20"
         style="fill:none;stroke:#000000;stroke-width:3;stroke-linecap:square;stroke-linejoin:miter;stroke-miterlimit:4;stroke-dasharray:none;stroke-opacity:1"
         d="m 135.016,32.3945 -11.504,23.125 -11.496,-23.125" /><path
         id="path22"
         style="fill:none;stroke:#000000;stroke-width:3;stroke-linecap:square;stroke-linejoin:miter;stroke-miterlimit:4;stroke-dasharray:none;stroke-opacity:1"
         d="M 1.78125,70.1953 C 39.8672,77.9453 47.1328,93.918 63.4805,118.684" /><path
         id="path24"
         style="fill:none;stroke:#000000;stroke-width:3;stroke-linecap:square;stroke-linejoin:miter;stroke-miterlimit:4;stroke-dasharray:none;stroke-opacity:1"
         d="M 63.4805,1.09766 C 69.625,6.73828 71.5,12.3633 74,16.7383" /><path
         id="path26"
         style="fill:none;stroke:#000000;stroke-width:3;stroke-linecap:square;stroke-linejoin:miter;stroke-miterlimit:4;stroke-dasharray:none;stroke-opacity:1"
         d="M 1.78125,13.418 C 39.8867,21.6523 59.6641,48.2422 76.0117,73.0195" /><path
         id="path28"
         style="fill:none;stroke:#000000;stroke-width:3;stroke-linecap:square;stroke-linejoin:miter;stroke-miterlimit:4;stroke-dasharray:none;stroke-opacity:1"
         d="m 39.9531,86.418 c 19.5782,-6.6524 73.0859,-28.0235 111.0589,-8.3985 39.863,20.5938 40.047,27.5395 51.297,40.6645" /><path
         id="path30"
         style="fill:none;stroke:#000000;stroke-width:3;stroke-linecap:square;stroke-linejoin:miter;stroke-miterlimit:4;stroke-dasharray:none;stroke-opacity:1"
         d="M 33.5117,25.8633 C 52.9492,19.5547 107.223,8.23438 151.012,24.2695 c 46.015,16.8477 52.176,34.4141 61.297,50.4571" /><path
         id="path32"
         style="fill:none;stroke:#000000;stroke-width:3;stroke-linecap:square;stroke-linejoin:miter;stroke-miterlimit:4;stroke-dasharray:none;stroke-opacity:1"
         d="m 202.309,1.09766 c 4.007,4.79687 7.183,8.72265 10.05,15.89064" /><path
         id="path34"
         style="fill:none;stroke:#000000;stroke-width:3;stroke-linecap:square;stroke-linejoin:miter;stroke-miterlimit:4;stroke-dasharray:none;stroke-opacity:1"
         d="m 176.164,91.5273 c 15.793,-9.5937 51.57,-26.7851 99.465,-21.332" /><path
         id="path36"
         style="fill:none;stroke:#000000;stroke-width:3;stroke-linecap:square;stroke-linejoin:miter;stroke-miterlimit:4;stroke-dasharray:none;stroke-opacity:1"
         d="M 173.969,33.2461 C 189.355,23.8203 226.895,7.86719 275.629,13.418" /></g></g></svg>