<?xml version="1.0" encoding="UTF-8" standalone="no"?>
<svg
   xmlns:dc="http://purl.org/dc/elements/1.1/"
   xmlns:cc="http://creativecommons.org/ns#"
   xmlns:rdf="http://www.w3.org/1999/02/22-rdf-syntax-ns#"
   xmlns:svg="http://www.w3.org/2000/svg"
   xmlns="http://www.w3.org/2000/svg"
   viewBox="0 0 37.786667 15.12"
   height="15.12"
   width="37.786667"
   xml:space="preserve"
   id="svg2"
   version="1.1"><metadata
     id="metadata8"><rdf:RDF><cc:Work
         rdf:about=""><dc:format>image/svg+xml</dc:format><dc:type
           rdf:resource="http://purl.org/dc/dcmitype/StillImage" /></cc:Work></rdf:RDF></metadata><defs
     id="defs6" /><g
     transform="matrix(1.3333333,0,0,-1.3333333,0,15.12)"
     id="g10"><g
       transform="scale(0.1)"
       id="g12"><path
         id="path14"
         style="fill:#000000;fill-opacity:1;fill-rule:nonzero;stroke:none"
         d="m 14.1719,94.0703 c 2.832,0 5.1367,2.3086 5.1367,5.1406 0,2.8321 -2.3047,5.1331 -5.1367,5.1331 -2.8321,0 -5.14065,-2.301 -5.14065,-5.1331 0,-2.832 2.30855,-5.1406 5.14065,-5.1406" /><path
         id="path16"
         style="fill:#000000;fill-opacity:1;fill-rule:nonzero;stroke:none"
         d="m 70.8516,94.0703 c 2.8398,0 5.1328,2.3086 5.1328,5.1406 0,2.8321 -2.293,5.1331 -5.1328,5.1331 -2.8321,0 -5.1289,-2.301 -5.1289,-5.1331 0,-2.832 2.2968,-5.1406 5.1289,-5.1406" /><path
         id="path18"
         style="fill:#000000;fill-opacity:1;fill-rule:nonzero;stroke:none"
         d="m 127.551,94.0703 c 2.832,0 5.125,2.3086 5.125,5.1406 0,2.8321 -2.293,5.1331 -5.125,5.1331 -2.844,0 -5.137,-2.301 -5.137,-5.1331 0,-2.832 2.293,-5.1406 5.137,-5.1406" /><path
         id="path20"
         style="fill:#000000;fill-opacity:1;fill-rule:nonzero;stroke:none"
         d="m 184.23,94.0703 c 2.84,0 5.125,2.3086 5.125,5.1406 0,2.8321 -2.285,5.1331 -5.125,5.1331 -2.843,0 -5.128,-2.301 -5.128,-5.1331 0,-2.832 2.285,-5.1406 5.128,-5.1406" /><path
         id="path22"
         style="fill:#000000;fill-opacity:1;fill-rule:nonzero;stroke:none"
         d="m 240.918,94.0703 c 2.832,0 5.137,2.3086 5.137,5.1406 0,2.8321 -2.305,5.1331 -5.137,5.1331 -2.832,0 -5.137,-2.301 -5.137,-5.1331 0,-2.832 2.305,-5.1406 5.137,-5.1406" /><path
         id="path24"
         style="fill:#000000;fill-opacity:1;fill-rule:nonzero;stroke:none"
         d="m 269.258,65.7305 c 2.832,0 5.137,2.2968 5.137,5.1289 0,2.8437 -2.305,5.1367 -5.137,5.1367 -2.832,0 -5.137,-2.293 -5.137,-5.1367 0,-2.8321 2.305,-5.1289 5.137,-5.1289" /><path
         id="path26"
         style="fill:#000000;fill-opacity:1;fill-rule:nonzero;stroke:none"
         d="m 212.578,65.7305 c 2.832,0 5.129,2.2968 5.129,5.1289 0,2.8437 -2.297,5.1367 -5.129,5.1367 -2.844,0 -5.137,-2.293 -5.137,-5.1367 0,-2.8321 2.293,-5.1289 5.137,-5.1289" /><path
         id="path28"
         style="fill:#000000;fill-opacity:1;fill-rule:nonzero;stroke:none"
         d="m 155.891,65.7305 c 2.832,0 5.125,2.2968 5.125,5.1289 0,2.8437 -2.293,5.1367 -5.125,5.1367 -2.832,0 -5.137,-2.293 -5.137,-5.1367 0,-2.8321 2.305,-5.1289 5.137,-5.1289" /><path
         id="path30"
         style="fill:#000000;fill-opacity:1;fill-rule:nonzero;stroke:none"
         d="m 99.1992,65.7305 c 2.8318,0 5.1248,2.2968 5.1248,5.1289 0,2.8437 -2.293,5.1367 -5.1248,5.1367 -2.8437,0 -5.1367,-2.293 -5.1367,-5.1367 0,-2.8321 2.293,-5.1289 5.1367,-5.1289" /><path
         id="path32"
         style="fill:#000000;fill-opacity:1;fill-rule:nonzero;stroke:none"
         d="m 42.5117,65.7305 c 2.8321,0 5.1367,2.2968 5.1367,5.1289 0,2.8437 -2.3046,5.1367 -5.1367,5.1367 -2.832,0 -5.1367,-2.293 -5.1367,-5.1367 0,-2.8321 2.3047,-5.1289 5.1367,-5.1289" /><path
         id="path34"
         style="fill:#000000;fill-opacity:1;fill-rule:nonzero;stroke:none"
         d="m 14.1719,37.3828 c 2.832,0 5.1367,2.293 5.1367,5.125 0,2.8438 -2.3047,5.1367 -5.1367,5.1367 -2.8321,0 -5.14065,-2.2929 -5.14065,-5.1367 0,-2.832 2.30855,-5.125 5.14065,-5.125" /><path
         id="path36"
         style="fill:#000000;fill-opacity:1;fill-rule:nonzero;stroke:none"
         d="m 70.8516,37.3828 c 2.8398,0 5.1328,2.293 5.1328,5.125 0,2.8438 -2.293,5.1367 -5.1328,5.1367 -2.8321,0 -5.1289,-2.2929 -5.1289,-5.1367 0,-2.832 2.2968,-5.125 5.1289,-5.125" /><path
         id="path38"
         style="fill:#000000;fill-opacity:1;fill-rule:nonzero;stroke:none"
         d="m 127.551,37.3828 c 2.832,0 5.125,2.293 5.125,5.125 0,2.8438 -2.293,5.1367 -5.125,5.1367 -2.844,0 -5.137,-2.2929 -5.137,-5.1367 0,-2.832 2.293,-5.125 5.137,-5.125" /><path
         id="path40"
         style="fill:#000000;fill-opacity:1;fill-rule:nonzero;stroke:none"
         d="m 184.23,37.3828 c 2.84,0 5.125,2.293 5.125,5.125 0,2.8438 -2.285,5.1367 -5.125,5.1367 -2.843,0 -5.128,-2.2929 -5.128,-5.1367 0,-2.832 2.285,-5.125 5.128,-5.125" /><path
         id="path42"
         style="fill:#000000;fill-opacity:1;fill-rule:nonzero;stroke:none"
         d="m 240.918,37.3828 c 2.832,0 5.137,2.293 5.137,5.125 0,2.8438 -2.305,5.1367 -5.137,5.1367 -2.832,0 -5.137,-2.2929 -5.137,-5.1367 0,-2.832 2.305,-5.125 5.137,-5.125" /><path
         id="path44"
         style="fill:#000000;fill-opacity:1;fill-rule:nonzero;stroke:none"
         d="m 269.258,9.03516 c 2.832,0 5.137,2.30464 5.137,5.13674 0,2.832 -2.305,5.1328 -5.137,5.1328 -2.832,0 -5.137,-2.3008 -5.137,-5.1328 0,-2.8321 2.305,-5.13674 5.137,-5.13674" /><path
         id="path46"
         style="fill:#000000;fill-opacity:1;fill-rule:nonzero;stroke:none"
         d="m 212.578,9.03516 c 2.832,0 5.129,2.30464 5.129,5.13674 0,2.832 -2.297,5.1328 -5.129,5.1328 -2.844,0 -5.137,-2.3008 -5.137,-5.1328 0,-2.8321 2.293,-5.13674 5.137,-5.13674" /><path
         id="path48"
         style="fill:#000000;fill-opacity:1;fill-rule:nonzero;stroke:none"
         d="m 155.891,9.03516 c 2.832,0 5.125,2.30464 5.125,5.13674 0,2.832 -2.293,5.1328 -5.125,5.1328 -2.832,0 -5.137,-2.3008 -5.137,-5.1328 0,-2.8321 2.305,-5.13674 5.137,-5.13674" /><path
         id="path50"
         style="fill:#000000;fill-opacity:1;fill-rule:nonzero;stroke:none"
         d="m 99.1992,9.03516 c 2.8318,0 5.1248,2.30464 5.1248,5.13674 0,2.832 -2.293,5.1328 -5.1248,5.1328 -2.8437,0 -5.1367,-2.3008 -5.1367,-5.1328 0,-2.8321 2.293,-5.13674 5.1367,-5.13674" /><path
         id="path52"
         style="fill:#000000;fill-opacity:1;fill-rule:nonzero;stroke:none"
         d="m 42.5117,9.03516 c 2.8321,0 5.1367,2.30464 5.1367,5.13674 0,2.832 -2.3046,5.1328 -5.1367,5.1328 -2.832,0 -5.1367,-2.3008 -5.1367,-5.1328 0,-2.8321 2.3047,-5.13674 5.1367,-5.13674" /></g></g></svg>